<?xml version="1.0" standalone="no"?>
<!DOCTYPE svg PUBLIC "-//W3C//DTD SVG 1.1//EN" "http://www.w3.org/Graphics/SVG/1.1/DTD/svg11.dtd" >
<svg xmlns="http://www.w3.org/2000/svg">
<metadata></metadata>
<defs>
<font id="adihaus_cyr_regregular" horiz-adv-x="500" >
<font-face units-per-em="1000" ascent="800" descent="-200" />
<missing-glyph horiz-adv-x="249" />
<glyph unicode=" "  horiz-adv-x="249" />
<glyph unicode="&#x09;" horiz-adv-x="249" />
<glyph unicode="&#xa0;" horiz-adv-x="249" />
<glyph unicode="!" horiz-adv-x="316" d="M204 200h-62l-10 512h83zM130 0v84h86v-84h-86z" />
<glyph unicode="&#x22;" horiz-adv-x="423" d="M256 542v170h79v-170h-79zM88 542v170h79v-170h-79z" />
<glyph unicode="#" horiz-adv-x="653" d="M506 432l-23 -141h89v-64h-99l-36 -227h-74l36 227h-160l-35 -227h-74l36 227h-89v64h100l23 141h-92v66h101l34 215h75l-35 -215h159l34 215h73l-34 -215h87v-66h-96zM273 432l-23 -141h159l23 141h-159z" />
<glyph unicode="$" horiz-adv-x="596" d="M540 196q0 -44 -15.5 -79t-44 -61t-69 -41.5t-89.5 -18.5v-110h-60v108q-71 3 -122 25t-98 69l52 52q40 -40 80.5 -57.5t91.5 -19.5v265l-20 2q-41 4 -75 20t-55 34q-55 49 -55 133q0 85 53.5 138.5t147.5 61.5v89h60v-89q58 -3 101 -21.5t85 -55.5l-49 -49 q-29 26 -61.5 41.5t-78.5 18.5v-259l31 -5q25 -4 44 -8.5t34 -10.5t27.5 -13.5t23.5 -17.5q29 -25 45 -60.5t16 -80.5zM464 194q0 28 -9 51t-26 38q-25 22 -51.5 27t-58.5 10v-257q68 5 106.5 39t38.5 92zM266 651q-63 -5 -96.5 -40t-33.5 -91q0 -54 32 -82q21 -17 46.5 -26 t51.5 -13v252z" />
<glyph unicode="%" horiz-adv-x="833" d="M769 128q0 -62 -38.5 -98.5t-96.5 -36.5q-59 0 -97 36.5t-38 98.5v105q0 62 38 98.5t97 36.5q58 0 96.5 -36.5t38.5 -98.5v-105zM335 479q0 -61 -38.5 -97.5t-96.5 -36.5q-59 0 -97 36.5t-38 97.5v105q0 62 38 98.5t97 36.5q58 0 96.5 -36.5t38.5 -98.5v-105zM280 0h-60 l334 712h60zM712 231q0 40 -18.5 63.5t-59.5 23.5q-42 0 -60 -23t-18 -64v-101q0 -41 18 -64t60 -23q41 0 59.5 23.5t18.5 63.5v101zM278 582q0 40 -18.5 63.5t-59.5 23.5q-42 0 -60 -23t-18 -64v-101q0 -41 18.5 -63.5t59.5 -22.5t59.5 23t18.5 63v101z" />
<glyph unicode="&#x26;" horiz-adv-x="739" d="M576 0l-64 78q-11 -10 -29 -24.5t-44 -27.5t-60 -22.5t-77 -9.5q-52 0 -93.5 15t-71 42t-45 65t-15.5 85q0 40 13 71t34.5 56t49.5 45.5t57 40.5q-13 16 -26.5 33t-25 36t-18.5 40.5t-7 45.5q0 32 11.5 59t32.5 47t50 31.5t63 11.5q33 0 61.5 -11.5t49.5 -31.5 t32.5 -47.5t11.5 -59.5q0 -43 -22.5 -73.5t-56.5 -53.5q-10 -8 -20 -14q-8 -6 -17.5 -11.5t-15.5 -10.5l182 -219q11 16 18.5 32.5t12 35.5t7 42t2.5 53h72q-1 -68 -16 -122t-50 -96l109 -131h-95zM273 366q-23 -16 -45 -32t-39 -35t-27.5 -42.5t-10.5 -53.5q0 -32 11 -58 t31 -45t47.5 -29t60.5 -10q40 0 81 14t87 55zM395 568q0 36 -24 60.5t-60 24.5q-37 0 -59.5 -23.5t-22.5 -59.5q0 -25 14.5 -49.5t49.5 -67.5q5 3 11 7t12 9q7 4 15 10q25 17 44.5 37.5t19.5 51.5z" />
<glyph unicode="'" horiz-adv-x="255" d="M88 542v170h79v-170h-79z" />
<glyph unicode="(" horiz-adv-x="298" d="M185 -94q-24 24 -41 42.5t-31 43.5t-17.5 51t-3.5 52v522q0 26 3.5 52t17.5 51t31 43.5t41 42.5l49 -49q-17 -17 -30.5 -31t-23.5 -34q-16 -32 -16 -81v-510q0 -49 16 -81q10 -20 23.5 -34t30.5 -31z" />
<glyph unicode=")" horiz-adv-x="298" d="M205 95q0 -26 -3 -52t-17 -51t-31 -43.5t-41 -42.5l-51 51l31 31t24 34q8 15 11 35t3 44v510q0 24 -3 44t-11 35q-10 20 -24 34l-31 31l51 51q24 -24 41 -42.5t31 -43.5t17 -51t3 -52v-522v0z" />
<glyph unicode="*" horiz-adv-x="474" d="M379 423l-117 71l4 -137h-58l4 137l-116 -71l-29 49l120 65l-120 66l29 48l116 -71l-4 137h58l-4 -137l117 71l28 -48l-120 -66l120 -65z" />
<glyph unicode="+" horiz-adv-x="522" d="M295 234v-176h-67v176h-176v67h176v174h67v-174h175v-67h-175z" />
<glyph unicode="," horiz-adv-x="264" d="M88 -144v232h88v-153z" />
<glyph unicode="-" horiz-adv-x="426" d="M76 236v67h274v-67h-274z" />
<glyph unicode="." horiz-adv-x="270" d="M88 0v94h94v-94h-94z" />
<glyph unicode="/" horiz-adv-x="355" d="M71 -74h-71l285 860h71z" />
<glyph unicode="0" horiz-adv-x="528" d="M459 190q0 -44 -15 -80.5t-41 -62t-61.5 -39.5t-77.5 -14t-77.5 14t-61.5 39.5t-41 62t-15 80.5v332q0 44 15 80.5t41 62t61.5 39.5t77.5 14t77.5 -14t61.5 -39.5t41 -62t15 -80.5v-332zM387 518q0 59 -31.5 97.5t-91.5 38.5t-91.5 -38.5t-31.5 -97.5v-324 q0 -59 31.5 -97.5t91.5 -38.5t91.5 38.5t31.5 97.5v324z" />
<glyph unicode="1" horiz-adv-x="528" d="M261 0v632l-133 -117v82l133 115h72v-712h-72z" />
<glyph unicode="2" horiz-adv-x="528" d="M71 0v64l281 357q20 26 30 51t10 54q0 58 -32.5 93t-91.5 35q-25 0 -47.5 -7t-39.5 -23t-27 -40.5t-10 -58.5h-72q0 42 14 77.5t39.5 61t61.5 40t81 14.5q44 0 80 -13.5t62 -38.5t40 -60.5t14 -79.5q0 -43 -14 -74.5t-43 -69.5l-249 -318h306v-64h-393z" />
<glyph unicode="3" horiz-adv-x="528" d="M463 194q0 -49 -16.5 -86.5t-44.5 -63t-66.5 -38.5t-81.5 -13q-42 0 -79 11t-65 34.5t-45.5 59t-19.5 83.5h72q2 -33 14 -56.5t31 -38.5t42.5 -22t49.5 -7q58 0 97.5 36t39.5 102q0 65 -33.5 101.5t-106.5 36.5h-15v63h15q66 0 96.5 34.5t30.5 94.5q0 64 -36 97t-88 33 q-57 0 -90 -32t-38 -87h-72q3 43 19.5 77t43 57.5t61.5 36t76 12.5q43 0 79.5 -14t62 -39t40 -61t14.5 -79q0 -115 -96 -158q109 -41 109 -174z" />
<glyph unicode="4" horiz-adv-x="528" d="M398 113v-113h-71v113h-284v65l257 534h77l-257 -534h207v202h71v-202h87v-65h-87z" />
<glyph unicode="5" horiz-adv-x="528" d="M465 235q0 -54 -9.5 -102.5t-47.5 -86.5q-25 -25 -59.5 -39t-82.5 -14q-47 0 -83.5 14t-59.5 37q-23 24 -35 55t-15 69h72q7 -54 35.5 -82.5t85.5 -28.5q55 0 88 33q14 14 22 31t11.5 36t4.5 39t1 39q0 33 -4.5 64t-17 55t-36 39t-62.5 15q-47 0 -77 -19t-41 -51h-65v374 h360v-64h-295v-226q21 23 53.5 36t74.5 13q40 0 71 -12t52 -33q19 -20 31 -42.5t18 -47.5t8 -50.5t2 -50.5z" />
<glyph unicode="6" horiz-adv-x="528" d="M463 205q0 -45 -14 -84t-39.5 -67t-62 -44t-81.5 -16t-82 14.5t-62.5 41.5t-39.5 65t-14 84q0 38 11 76.5t34 83.5l175 353h74l-159 -320q33 15 75 15t76 -15t58 -42t37.5 -64t13.5 -81zM391 202q0 30 -8 56t-24 45.5t-39.5 31t-54.5 11.5q-57 0 -91 -39t-34 -105 t34 -105t91 -39t91.5 39t34.5 105z" />
<glyph unicode="7" horiz-adv-x="528" d="M227 0h-76l247 648h-248v-112h-71v176h395v-64z" />
<glyph unicode="8" horiz-adv-x="528" d="M474 196q0 -45 -16 -82t-44.5 -64t-67 -41.5t-82.5 -14.5t-82.5 14.5t-67 41.5t-44.5 64t-16 82q0 63 31 105t76 68q-42 24 -67.5 63t-25.5 95q0 42 14.5 77t41 60.5t62.5 39.5t78 14t78 -14t62.5 -39.5t41 -60.5t14.5 -77q0 -56 -25 -95t-67 -63q45 -26 75.5 -68 t30.5 -105zM402 197q0 30 -10.5 55t-29 44t-44 29.5t-54.5 10.5t-54.5 -10.5t-44 -29.5t-29 -44t-10.5 -55t10.5 -55t29 -44t44 -29.5t54.5 -10.5t54.5 10.5t44 29.5t29 44t10.5 55zM388 526q0 56 -34.5 92t-89.5 36t-89.5 -36t-34.5 -92q0 -57 34.5 -92t89.5 -35t89.5 35 t34.5 92z" />
<glyph unicode="9" horiz-adv-x="528" d="M460 513q0 -38 -11 -76.5t-34 -83.5l-175 -353h-75l160 320q-33 -15 -76 -15q-42 0 -76 15t-58 42t-37 64t-13 81q0 45 14 84t39.5 67t62 44t81.5 16t82 -14.5t62.5 -41.5t39.5 -65t14 -84zM388 510q0 66 -34.5 105t-91.5 39t-91 -39t-34 -105q0 -30 8 -56t23.5 -45.5 t39 -31t54.5 -11.5q57 0 91.5 39t34.5 105z" />
<glyph unicode=":" horiz-adv-x="297" d="M115 301v94h94v-94h-94zM115 0v94h94v-94h-94z" />
<glyph unicode=";" horiz-adv-x="297" d="M117 -144v232h88v-153zM115 301v94h94v-94h-94z" />
<glyph unicode="&#x3c;" horiz-adv-x="522" d="M95 236v66l331 168v-77l-250 -124l250 -124v-77z" />
<glyph unicode="=" horiz-adv-x="522" d="M52 320v67h418v-67h-418zM52 151v66h418v-66h-418z" />
<glyph unicode="&#x3e;" horiz-adv-x="522" d="M95 68v77l250 124l-250 124v77l331 -168v-66z" />
<glyph unicode="?" horiz-adv-x="497" d="M451 536q0 -35 -12.5 -63.5t-32.5 -57.5l-82 -118q-9 -14 -13.5 -30t-4.5 -28v-39h-72v40q0 29 7.5 50t23.5 44l81 117q14 21 23.5 40t9.5 45q0 51 -32 84.5t-83 33.5q-27 0 -48.5 -9.5t-36.5 -26t-23 -38t-8 -45.5h-72q0 38 14 71.5t39.5 58t59.5 39t75 14.5 q39 0 73.5 -13.5t59.5 -37.5t39.5 -57.5t14.5 -73.5zM227 0v84h86v-84h-86z" />
<glyph unicode="@" horiz-adv-x="887" d="M796 414q0 -47 -15 -95t-42.5 -86t-66.5 -62t-87 -24q-24 0 -38.5 6.5t-22.5 17t-11 22t-3 22.5q-14 -27 -44.5 -47.5t-68.5 -20.5q-56 0 -93 39.5t-37 111.5q0 62 15.5 111t40.5 82.5t56.5 51.5t64.5 18q44 0 71.5 -18t38.5 -43l9 50h63l-50 -276q-2 -11 -3.5 -23 t0.5 -22.5t9 -17t22 -6.5q27 0 51 18.5t41.5 48.5t27.5 67.5t10 74.5q0 53 -22 98t-60.5 77.5t-89 50.5t-107.5 18q-62 0 -116 -23.5t-94.5 -65t-63.5 -96.5t-23 -118q0 -68 23 -124t63.5 -96t95 -61.5t116.5 -21.5q71 0 135 16t112 49l31 -48q-56 -40 -126 -57.5 t-155 -17.5q-76 0 -142 25.5t-114.5 73t-76.5 114t-28 148.5q0 76 29 142.5t78.5 115.5t116 77t141.5 28q72 0 134 -23.5t107.5 -64.5t71.5 -96.5t26 -119.5zM532 390q6 46 -14 79t-69 33q-21 0 -41.5 -15t-36.5 -41t-26 -62t-10 -79q0 -46 19 -73t53 -27q23 0 42.5 12.5 t35.5 33t26.5 47t15.5 55.5q1 4 2.5 18.5t2.5 18.5z" />
<glyph unicode="A" horiz-adv-x="611" d="M518 0l-57 161h-311l-57 -161h-81l262 712h64l261 -712h-81zM307 603l-134 -376h266z" />
<glyph unicode="B" horiz-adv-x="668" d="M592 197q0 -48 -15.5 -85t-43.5 -62t-67 -37.5t-86 -12.5h-277v712h268q46 0 85 -13t66.5 -37.5t43 -59.5t15.5 -80q0 -57 -30 -98t-75 -58q51 -19 83.5 -62t32.5 -107zM516 199q0 60 -38.5 95t-104.5 35h-194v-261h194q66 0 104.5 35.5t38.5 95.5zM505 521q0 32 -11 55 t-29.5 38t-44 22.5t-55.5 7.5h-186v-247h186q30 0 55.5 7.5t44 22.5t29.5 38.5t11 55.5z" />
<glyph unicode="C" horiz-adv-x="637" d="M572 206q-9 -50 -30.5 -89.5t-54 -66.5t-73.5 -41.5t-89 -14.5q-53 0 -99.5 19t-82.5 55q-25 25 -38.5 52t-20 60.5t-7.5 76t-1 99.5t1 99.5t7.5 76t20 60.5t38.5 52q36 36 82.5 55t99.5 19q48 0 89 -14.5t73.5 -41.5t54 -66.5t30.5 -89.5h-78q-14 66 -58 105t-111 39 q-35 0 -67.5 -13t-55.5 -37q-17 -17 -27 -36.5t-15 -47t-6.5 -66t-1.5 -94.5t1.5 -94.5t6.5 -66t15 -47t27 -36.5q23 -24 55.5 -37t67.5 -13q67 0 112 39t59 105h76v0z" />
<glyph unicode="D" horiz-adv-x="673" d="M597 364q0 -37 -0.5 -78t-6.5 -80.5t-20.5 -75.5t-42.5 -64q-32 -32 -78 -49t-102 -17h-244v712h244q56 0 102 -17t78 -49q28 -28 42.5 -61.5t20.5 -70t6.5 -75t0.5 -75.5zM521 364q0 33 -0.5 65.5t-4.5 62t-14 55.5t-28 45q-28 29 -63 40.5t-77 11.5h-155v-576h155 q42 0 77 11.5t63 40.5q18 19 28 47.5t14 61t4.5 67.5t0.5 68z" />
<glyph unicode="E" horiz-adv-x="600" d="M103 0v712h442v-68h-366v-251h312v-68h-312v-257h366v-68h-442z" />
<glyph unicode="F" horiz-adv-x="580" d="M179 644v-262h312v-68h-312v-314h-76v712h442v-68h-366z" />
<glyph unicode="G" horiz-adv-x="650" d="M576 260q0 -62 -14 -105.5t-47 -78.5q-38 -41 -86.5 -61.5t-103.5 -20.5q-53 0 -99.5 19t-82.5 55q-25 25 -38.5 52t-20 60.5t-7.5 76t-1 99.5t1 99.5t7.5 76t20 60.5t38.5 52q74 74 182 74q51 0 93.5 -15.5t74.5 -44t52.5 -67.5t28.5 -86h-76q-15 68 -60.5 106.5 t-112.5 38.5q-35 0 -67.5 -13.5t-55.5 -37.5q-17 -17 -27 -36.5t-15 -46.5t-6.5 -65.5t-1.5 -94.5t1.5 -94.5t6.5 -66t15 -47t27 -36.5q23 -24 55.5 -37t67.5 -13q39 0 74.5 15.5t60.5 45.5q22 26 31 56.5t9 72.5v54h-175v67h251v-113v0z" />
<glyph unicode="H" horiz-adv-x="696" d="M517 0v325h-338v-325h-76v712h76v-319h338v319h76v-712h-76z" />
<glyph unicode="I" horiz-adv-x="282" d="M103 0v712h76v-712h-76z" />
<glyph unicode="J" horiz-adv-x="501" d="M408 216q0 -51 -16.5 -92.5t-46 -70t-70 -44t-89.5 -15.5q-51 0 -90.5 15.5t-72.5 48.5l51 51q19 -20 43.5 -33.5t68.5 -13.5q70 0 108 42.5t38 121.5v486h76v-496v0z" />
<glyph unicode="K" horiz-adv-x="650" d="M546 0l-217 379l-150 -180v-199h-76v712h76v-409l332 409h93l-224 -275l256 -437h-90z" />
<glyph unicode="L" horiz-adv-x="573" d="M103 0v712h76v-644h364v-68h-440z" />
<glyph unicode="M" horiz-adv-x="816" d="M637 0v541l-195 -429h-65l-198 429v-541h-76v712h76l232 -505l226 505h76v-712h-76z" />
<glyph unicode="N" horiz-adv-x="732" d="M557 0l-378 571v-571h-76v712h72l378 -569v569h76v-712h-72z" />
<glyph unicode="O" horiz-adv-x="650" d="M574 356q0 -57 -1 -99.5t-7.5 -76t-20 -60.5t-38.5 -52q-36 -36 -82 -55t-100 -19q-108 0 -182 74q-25 25 -38.5 52t-20 60.5t-7.5 76t-1 99.5t1 99.5t7.5 76t20 60.5t38.5 52q74 74 182 74t182 -74q25 -25 38.5 -52t20 -60.5t7.5 -76t1 -99.5zM498 356q0 56 -1.5 94.5 t-6.5 65.5t-15 46.5t-27 36.5q-23 24 -55.5 37.5t-67.5 13.5t-67.5 -13.5t-55.5 -37.5q-17 -17 -27 -36.5t-15 -46.5t-6.5 -65.5t-1.5 -94.5t1.5 -94.5t6.5 -65.5t15 -46.5t27 -36.5q23 -24 55.5 -37.5t67.5 -13.5t67.5 13.5t55.5 37.5q17 17 27 36.5t15 46.5t6.5 65.5 t1.5 94.5z" />
<glyph unicode="P" horiz-adv-x="630" d="M588 503q0 -48 -16 -87t-45 -66t-69.5 -42t-89.5 -15h-189v-293h-76v712h265q49 0 89.5 -14.5t69.5 -42t45 -66t16 -86.5zM512 503q0 71 -42 106t-109 35h-182v-283h182q67 0 109 35.5t42 106.5z" />
<glyph unicode="Q" horiz-adv-x="649" d="M557 -35l-79 79q-65 -50 -153 -50q-108 0 -182 74q-25 25 -38.5 52t-20 60.5t-7.5 76t-1 99.5t1 99.5t7.5 76t20 60.5t38.5 52q74 74 182 74t182 -74q25 -25 38.5 -52t20 -60.5t7.5 -76t1 -99.5q0 -51 -1 -90.5t-5.5 -71t-14.5 -57t-28 -48.5l78 -78zM498 356 q0 56 -1.5 94.5t-6.5 65.5t-15 46.5t-27 36.5q-23 24 -55.5 37.5t-67.5 13.5t-67.5 -13.5t-55.5 -37.5q-17 -17 -27 -36.5t-15 -46.5t-6.5 -65.5t-1.5 -94.5t1.5 -94.5t6.5 -65.5t15 -46.5t27 -36.5q23 -24 55.5 -37.5t67.5 -13.5q56 0 101 34l-90 90l46 46l87 -87 q10 16 15.5 35t8.5 43.5t4 57t1 75.5z" />
<glyph unicode="R" horiz-adv-x="656" d="M512 0l-162 316h-171v-316h-76v712h273q46 0 85 -13.5t67 -39t43.5 -62.5t15.5 -83q0 -78 -43 -127.5t-112 -63.5l169 -323h-89zM511 513q0 66 -39.5 98.5t-102.5 32.5h-190v-261h190q63 0 102.5 32t39.5 98z" />
<glyph unicode="S" horiz-adv-x="588" d="M532 196q0 -47 -17.5 -84.5t-50 -63.5t-78 -40t-100.5 -14q-80 0 -137 22t-107 72l52 52q44 -44 89 -61t105 -17q78 0 123 34.5t45 97.5q0 28 -8.5 51t-25.5 38t-35.5 21.5t-57.5 12.5l-83 13q-85 14 -131 54q-54 48 -54 133q0 45 16 82.5t45.5 63.5t71.5 40.5t95 14.5 q68 0 117 -18.5t95 -59.5l-49 -49q-33 30 -71 45.5t-95 15.5q-72 0 -111 -36t-39 -96q0 -54 32 -82q17 -14 42.5 -24t53.5 -15l78 -12q25 -4 44.5 -8.5t34.5 -10.5t27.5 -13.5t23.5 -17.5q60 -51 60 -141z" />
<glyph unicode="T" horiz-adv-x="548" d="M312 644v-644h-76v644h-206v68h488v-68h-206z" />
<glyph unicode="U" horiz-adv-x="683" d="M590 235q0 -53 -18.5 -97.5t-52 -76.5t-79 -49.5t-99.5 -17.5t-99.5 17.5t-78.5 49.5t-51.5 76.5t-18.5 97.5v477h76v-471q0 -41 12 -74t34.5 -56t54.5 -36t71 -13t71 13t54.5 36t35 56t12.5 74v471h76v-477v0z" />
<glyph unicode="V" horiz-adv-x="546" d="M304 0h-62l-234 712h80l185 -576l185 576h80z" />
<glyph unicode="W" horiz-adv-x="854" d="M656 0h-71l-158 570l-158 -570h-71l-182 712h81l139 -574l157 574h68l157 -574l139 574h81z" />
<glyph unicode="X" horiz-adv-x="551" d="M448 0l-173 299l-174 -299h-86l218 365l-204 347h88l158 -281l158 281h88l-205 -347l220 -365h-88z" />
<glyph unicode="Y" horiz-adv-x="514" d="M296 294v-294h-76v294l-212 418h82l168 -341l166 341h82z" />
<glyph unicode="Z" horiz-adv-x="556" d="M57 0v72l356 572h-342v68h428v-64l-359 -580h359v-68h-442z" />
<glyph unicode="[" horiz-adv-x="313" d="M92 -74v860h177v-64h-105v-732h105v-64h-177z" />
<glyph unicode="\" horiz-adv-x="355" d="M284 -74l-284 857h71l284 -857h-71z" />
<glyph unicode="]" horiz-adv-x="313" d="M44 -74v62h108v736h-108v62h177v-860h-177z" />
<glyph unicode="^" horiz-adv-x="537" d="M391 413l-122 228l-123 -228h-74l164 305h66l163 -305h-74z" />
<glyph unicode="_" horiz-adv-x="537" d="M0 -165v51h537v-51h-537z" />
<glyph unicode="`" d="M233 594l-108 153h86l88 -153h-66z" />
<glyph unicode="a" horiz-adv-x="526" d="M369 0v47q-30 -30 -61.5 -41.5t-80.5 -11.5q-51 0 -83.5 10.5t-55.5 34.5q-18 18 -27.5 44.5t-9.5 55.5q0 65 43.5 103.5t126.5 38.5h148v47q0 54 -29 81t-97 27q-48 0 -75 -12.5t-49 -43.5l-49 45q33 43 73.5 58t100.5 15q100 0 148.5 -41.5t48.5 -122.5v-334h-72z M369 227h-138q-110 0 -110 -87q0 -43 27 -63.5t86 -20.5q32 0 59.5 5t50.5 28q25 24 25 85v53z" />
<glyph unicode="b" horiz-adv-x="545" d="M481 246q0 -29 -2.5 -58t-9 -56.5t-18 -51.5t-30.5 -43q-20 -20 -51 -31.5t-69 -11.5q-41 0 -75 13t-64 52v-59h-72v712h72v-277q30 38 64 50.5t75 12.5q38 0 69 -11.5t51 -31.5q19 -19 30.5 -43t18 -51.5t9 -56.5t2.5 -58zM409 246q0 36 -4 70t-17 60t-37.5 42t-64.5 16 t-64.5 -16t-37.5 -42t-17.5 -60t-4.5 -70t4.5 -70t17.5 -60t37.5 -42t64.5 -16t64.5 16t37.5 42t17 60t4 70z" />
<glyph unicode="c" horiz-adv-x="490" d="M443 67q-38 -41 -74.5 -57t-87.5 -16q-47 0 -86.5 15.5t-69 47t-46 79t-16.5 110.5t16.5 110t46 78.5t69 47.5t86.5 16q51 0 87.5 -16t74.5 -57l-49 -46q-28 31 -53 43t-60 12q-36 0 -65 -14t-49 -42q-17 -24 -24.5 -54.5t-7.5 -77.5t7.5 -77.5t24.5 -54.5q20 -28 49 -42 t65 -14q35 0 60 12.5t53 43.5l49 -47v0z" />
<glyph unicode="d" horiz-adv-x="545" d="M384 0v59q-30 -39 -64.5 -52t-75.5 -13q-38 0 -69 11.5t-51 31.5q-19 19 -30.5 43t-18 51.5t-9 56.5t-2.5 58t2.5 58t9 56.5t18 51.5t30.5 43q20 20 51 31.5t69 11.5q41 0 75 -12.5t64 -50.5v277h72v-712h-71zM383 246q0 36 -4 70t-17 60t-37.5 42t-64.5 16t-64.5 -16 t-37.5 -42t-17.5 -60t-4.5 -70t4.5 -70t17.5 -60t37.5 -42t64.5 -16t64.5 16t37.5 42t17 60t4 70z" />
<glyph unicode="e" horiz-adv-x="530" d="M135 227q0 -81 37 -125.5t108 -44.5q43 0 71.5 13.5t57.5 42.5l49 -43q-19 -19 -37.5 -33t-39.5 -23.5t-46.5 -14.5t-56.5 -5q-49 0 -88.5 15t-67.5 46t-43.5 78.5t-15.5 112.5q0 120 54 186t148 66q96 0 149 -64t53 -174v-33h-332zM395 281q-1 15 -2 26t-2.5 20t-4 17.5 t-6.5 18.5q-14 34 -45 54t-70 20t-70 -20t-45 -54q-8 -20 -11 -36t-4 -46h260z" />
<glyph unicode="f" horiz-adv-x="314" d="M178 434v-434h-72v434h-63v55h63v93q0 27 7.5 51t23.5 42t39 28.5t55 10.5h52v-62h-39q-35 0 -50.5 -19t-15.5 -53v-91h105v-55h-105z" />
<glyph unicode="g" horiz-adv-x="543" d="M453 -15q0 -46 -14 -84.5t-40 -66.5t-64.5 -44t-86.5 -16q-28 0 -50 3.5t-41.5 11.5t-38 20.5t-37.5 30.5l47 46q13 -12 25.5 -21t26 -15.5t29.5 -9.5t37 -3q36 0 61.5 12t42 32t24 47.5t7.5 59.5v77q-30 -38 -64 -51t-74 -13q-38 0 -68.5 12t-50.5 32q-37 37 -48.5 91 t-11.5 114t11.5 114t48.5 91q20 20 51 31.5t69 11.5q41 0 74.5 -12.5t63.5 -51.5v58h71v-507zM381 250q0 34 -4 67.5t-17 59t-37 41.5t-64 16t-64.5 -16t-37.5 -41.5t-17 -59t-4 -67.5q0 -35 4 -68t17 -58.5t37.5 -41.5t64.5 -16t64 16t37 41.5t17 58.5t4 68z" />
<glyph unicode="h" horiz-adv-x="562" d="M405 0v304q0 65 -32 97.5t-88 32.5t-89.5 -33t-33.5 -97v-304h-72v712h72v-274q53 60 138 60q84 0 130.5 -49t46.5 -133v-316h-72z" />
<glyph unicode="i" horiz-adv-x="253" d="M90 0v492h72v-492h-72zM86 632v81h81v-81h-81z" />
<glyph unicode="j" horiz-adv-x="253" d="M162 -89q0 -28 -7.5 -52t-23 -42t-39 -28t-55.5 -10h-52v63h39q38 0 52 18t14 54v575h72v-578zM86 632v81h81v-81h-81z" />
<glyph unicode="k" horiz-adv-x="536" d="M414 0l-156 252l-96 -110v-142h-72v712h72v-476l222 256h90l-167 -188l196 -304h-89z" />
<glyph unicode="l" horiz-adv-x="297" d="M213 0q-65 0 -95 37.5t-30 93.5v581h72v-578q0 -36 14 -54t52 -18h39v-62h-52z" />
<glyph unicode="m" horiz-adv-x="879" d="M722 0v303q0 66 -32.5 98.5t-88.5 32.5q-54 0 -88.5 -32t-34.5 -91v-311h-72v303q0 66 -32.5 98.5t-88.5 32.5t-89.5 -33t-33.5 -98v-303h-72v492h72v-54q26 30 61.5 45t77.5 15q51 0 89.5 -20.5t61.5 -61.5q58 82 162 82q40 0 72 -12t55 -34q53 -51 53 -137v-315h-72z " />
<glyph unicode="n" horiz-adv-x="562" d="M405 0v303q0 66 -32.5 98.5t-88.5 32.5t-89 -33t-33 -98v-303h-72v492h72v-54q26 30 61 45t77 15q80 0 126 -46q51 -50 51 -137v-315h-72z" />
<glyph unicode="o" horiz-adv-x="530" d="M466 246q0 -57 -11.5 -107.5t-48.5 -88.5q-26 -26 -61 -41t-80 -15t-80 15t-61 41q-19 19 -30.5 41.5t-18 47t-9 51.5t-2.5 56q0 28 2.5 55.5t9 52t18 47t30.5 41.5q26 26 61 41t80 15t80 -15t61 -41q37 -38 48.5 -88.5t11.5 -107.5zM394 246q0 21 -1 42t-5 41t-12 37.5 t-21 31.5q-36 36 -90 36q-53 0 -89 -36q-14 -14 -21.5 -31.5t-12 -37.5t-5.5 -41t-1 -42t1 -42t5.5 -41t12 -38t21.5 -31q36 -36 89 -36q54 0 90 36q13 13 21 31t12 38t5 41t1 42z" />
<glyph unicode="p" horiz-adv-x="545" d="M481 246q0 -29 -2.5 -58t-9 -56.5t-18 -51.5t-30.5 -43q-20 -20 -51 -31.5t-69 -11.5q-41 0 -75 13t-64 51v-278h-72v712h72v-58q30 39 64 51.5t75 12.5q38 0 69 -11.5t51 -31.5q19 -19 30.5 -43t18 -51.5t9 -56.5t2.5 -58zM409 246q0 36 -4 70t-17 60t-37.5 42t-64.5 16 t-64.5 -16t-37.5 -42t-17.5 -60t-4.5 -70t4.5 -70t17.5 -60t37.5 -42t64.5 -16t64.5 16t37.5 42t17 60t4 70z" />
<glyph unicode="q" horiz-adv-x="545" d="M383 -220v278q-30 -38 -64 -51t-75 -13q-38 0 -69 11.5t-51 31.5q-19 19 -30.5 43t-18 51.5t-9 56.5t-2.5 58t2.5 58t9 56.5t18 51.5t30.5 43q20 20 51 31.5t69 11.5q41 0 75.5 -12.5t64.5 -51.5v58h71v-712h-72zM383 246q0 36 -4 70t-17 60t-37.5 42t-64.5 16t-64.5 -16 t-37.5 -42t-17.5 -60t-4.5 -70t4.5 -70t17.5 -60t37.5 -42t64.5 -16t64.5 16t37.5 42t17 60t4 70z" />
<glyph unicode="r" horiz-adv-x="421" d="M365 398q-20 20 -38 28t-47 8q-27 0 -49 -10t-37 -28t-23.5 -42t-8.5 -52v-302h-72v492h72v-60q20 31 57.5 48.5t80.5 17.5q35 0 63.5 -10t54.5 -36z" />
<glyph unicode="s" horiz-adv-x="496" d="M445 144q0 -36 -14.5 -63.5t-41 -47t-63 -29.5t-81.5 -10q-63 0 -112 16t-90 55l48 48q29 -31 68 -44t85 -13q61 0 96 21.5t35 65.5q0 32 -19.5 50t-62.5 22l-81 7q-72 6 -109.5 38.5t-37.5 93.5q0 34 13.5 60.5t37.5 45t57.5 28.5t72.5 10q53 0 98.5 -13t78.5 -40 l-47 -47q-26 20 -59.5 29.5t-71.5 9.5q-54 0 -82 -21.5t-28 -59.5q0 -32 19.5 -50t66.5 -22l79 -7q32 -3 59 -11t46 -24t29.5 -40t10.5 -58z" />
<glyph unicode="t" horiz-adv-x="332" d="M228 0q-32 0 -55.5 10.5t-39 28.5t-23.5 42t-8 51v302h-62v55h62v154h72v-154h105v-55h-105v-300q0 -34 16 -53t51 -19h38v-62h-51z" />
<glyph unicode="u" horiz-adv-x="562" d="M401 0v55q-26 -30 -61.5 -45.5t-77.5 -15.5q-81 0 -127 46q-26 26 -38 60.5t-12 77.5v314h72v-303q0 -66 32 -98.5t88 -32.5t89.5 33t33.5 98v303h72v-492h-71z" />
<glyph unicode="v" horiz-adv-x="447" d="M255 0h-64l-180 492h78l134 -395l135 395h78z" />
<glyph unicode="w" horiz-adv-x="724" d="M558 0h-67l-129 382l-128 -382h-67l-156 492h78l113 -395l129 395h62l130 -395l112 395h78z" />
<glyph unicode="x" horiz-adv-x="478" d="M358 0l-118 191l-120 -191h-87l167 251l-160 241h87l113 -182l111 182h87l-160 -241l167 -251h-87z" />
<glyph unicode="y" horiz-adv-x="447" d="M212 -119q-14 -39 -35 -58q-20 -19 -45 -26.5t-51 -7.5h-31v64h22q37 0 53 13.5t28 47.5l35 96l-177 482h78l135 -395l134 395h78z" />
<glyph unicode="z" horiz-adv-x="459" d="M50 0v62l274 366h-259v64h342v-61l-275 -367h275v-64h-357z" />
<glyph unicode="{" horiz-adv-x="354" d="M268 -74q-38 0 -61.5 7t-39.5 23q-17 17 -23.5 38.5t-6.5 60.5v191q0 42 -18 60q-8 8 -19.5 13t-25.5 5h-26v64h26q14 0 25.5 5t19.5 13q18 18 18 60v191q0 39 6.5 60.5t23.5 38.5q16 16 39.5 23t61.5 7h37v-64h-23q-26 0 -38.5 -2.5t-20.5 -10.5t-11 -23t-3 -42v-188 q0 -43 -17 -64.5t-46 -35.5q29 -14 46 -35.5t17 -64.5v-188q0 -27 3 -42t11 -23t20.5 -10.5t38.5 -2.5h23v-64h-37z" />
<glyph unicode="|" horiz-adv-x="326" d="M127 -74v860h72v-860h-72z" />
<glyph unicode="}" horiz-adv-x="354" d="M280 324q-14 0 -25.5 -5t-19.5 -13q-18 -18 -18 -60v-191q0 -39 -6.5 -60.5t-23.5 -38.5q-16 -16 -39.5 -23t-61.5 -7h-38v64h24q26 0 38 2.5t20 10.5t11.5 23t3.5 42v188q0 43 17 64.5t46 35.5q-29 14 -46 35.5t-17 64.5v188q0 27 -3.5 42t-11.5 23t-20 10.5t-38 2.5 h-24v64h38q38 0 61.5 -7t39.5 -23q17 -17 23.5 -38.5t6.5 -60.5v-191q0 -42 18 -60q8 -8 19.5 -13t25.5 -5h25v-64h-25z" />
<glyph unicode="~" horiz-adv-x="539" d="M490 278q-21 -21 -37.5 -34.5t-31 -21t-29 -10t-31.5 -2.5q-26 0 -51.5 9t-54.5 22q-21 10 -39.5 17t-38.5 7q-11 0 -19.5 -1.5t-18 -6.5t-20.5 -13.5t-26 -23.5l-44 45q21 21 37.5 34t31 20.5t29 10.5t31.5 3q26 0 51 -9t54 -22q21 -10 39.5 -17t38.5 -7q10 0 19 1.5 t18.5 6.5t20.5 13.5t26 23.5l45 -45v0z" />
<glyph unicode="&#xa4;" horiz-adv-x="660" d="M536 19l-75 74q-27 -20 -60 -32t-71 -12t-71.5 12t-60.5 32l-74 -74l-46 46l74 74q-20 27 -32 60.5t-12 71.5t12 71.5t32 60.5l-74 73l46 46l74 -73q27 20 60.5 31.5t71.5 11.5t71 -11.5t60 -31.5l75 73l46 -46l-74 -73q20 -27 32 -60.5t12 -71.5t-12 -71.5t-32 -60.5 l74 -74zM485 271q0 32 -12 60.5t-33 49.5t-49.5 33t-60.5 12t-60.5 -12t-49.5 -33t-33.5 -49.5t-12.5 -60.5t12.5 -60.5t33.5 -49.5t49.5 -33.5t60.5 -12.5t60.5 12.5t49.5 33.5t33 49.5t12 60.5z" />
<glyph unicode="&#xa6;" horiz-adv-x="335" d="M127 436v350h72v-350h-72zM127 -74v350h72v-350h-72z" />
<glyph unicode="&#xa7;" horiz-adv-x="557" d="M470 254q0 -31 -9 -56.5t-23.5 -46.5t-33 -36t-38.5 -25q43 -16 70 -52.5t27 -91.5q0 -39 -14.5 -71t-39 -54.5t-58 -34.5t-72.5 -12q-37 0 -70.5 10t-59 30.5t-41.5 50.5t-18 70h73q5 -47 35 -71t81 -24t81 27t30 78q0 35 -23 62.5t-65 39.5l-78 22q-66 19 -101.5 66.5 t-35.5 116.5q0 31 9 56.5t23.5 46.5t33.5 36t39 25q-43 20 -68 51.5t-25 86.5q0 36 13.5 66.5t37.5 52t57 33.5t72 12t71.5 -11t56.5 -31t38 -49.5t16 -65.5h-72q-4 50 -33 71.5t-77 21.5q-51 0 -79.5 -25t-28.5 -74q0 -40 23 -62.5t61 -33.5l78 -22q66 -19 101.5 -67 t35.5 -116zM397 253q0 29 -6.5 51t-25.5 41q-36 36 -86 36q-53 0 -86 -36q-17 -19 -25 -40t-8 -52q0 -32 9.5 -54t23.5 -38q33 -36 86 -36t86 36q15 17 23.5 38.5t8.5 53.5z" />
<glyph unicode="&#xa8;" d="M320 602v89h72v-89h-72zM108 602v89h72v-89h-72z" />
<glyph unicode="&#xa9;" horiz-adv-x="881" d="M802 356q0 -75 -28.5 -141t-77.5 -115t-115 -77.5t-141 -28.5t-141 28.5t-115 77.5t-77.5 115t-28.5 141t28.5 141t77.5 115t115 77.5t141 28.5t141 -28.5t115 -77.5t77.5 -115t28.5 -141zM744 356q0 63 -24 119t-65 98t-96.5 66.5t-118.5 24.5t-118 -24.5t-96.5 -66.5 t-65 -98t-23.5 -119t23.5 -119t65 -98t96.5 -66.5t118 -24.5t118.5 24.5t96.5 66.5t65 98t24 119zM576 205q-29 -26 -59 -39t-72 -13q-44 0 -77 15.5t-55.5 42.5t-34 64t-11.5 81t11.5 81.5t34 64.5t55.5 42.5t77 15.5q42 0 71 -13t60 -40l-36 -36q-25 22 -46 30.5t-49 8.5 q-34 0 -57.5 -12.5t-37.5 -33.5t-20.5 -49t-6.5 -59q0 -32 6.5 -59.5t20.5 -48.5t37.5 -33t57.5 -12q28 0 49 8t46 30z" />
<glyph unicode="&#xab;" horiz-adv-x="554" d="M40 268l210 210v-90l-120 -120l120 -121v-89zM266 268l210 210v-90l-121 -120l121 -121v-89z" />
<glyph unicode="&#xac;" horiz-adv-x="522" d="M404 103v137h-353v67h420v-204h-67z" />
<glyph unicode="&#xae;" horiz-adv-x="881" d="M802 356q0 -75 -28.5 -141t-77.5 -115t-115 -77.5t-141 -28.5t-141 28.5t-115 77.5t-77.5 115t-28.5 141t28.5 141t77.5 115t115 77.5t141 28.5t141 -28.5t115 -77.5t77.5 -115t28.5 -141zM745 356q0 64 -24 120t-65.5 98t-97 66.5t-118.5 24.5t-118.5 -24.5t-96.5 -66.5 t-65 -98t-24 -120t24 -120t65 -98t96.5 -66.5t118.5 -24.5t118.5 24.5t97 66.5t65.5 98t24 120zM528 158l-91 162h-60v-162h-55v397h135q26 0 48.5 -9t39.5 -25t27 -38t10 -47q0 -44 -24 -71t-61 -38l95 -169h-64zM526 436q0 30 -21 50t-54 20h-74v-139h74q33 0 54 19.5 t21 49.5z" />
<glyph unicode="&#xaf;" d="M99 614v57h302v-57h-302z" />
<glyph unicode="&#xb0;" horiz-adv-x="463" d="M396 557q0 -34 -13 -64t-35 -52t-52 -35t-64 -13t-64 13t-52.5 35t-35.5 52t-13 64t13 64t35.5 52t52.5 35t64 13t64 -13t52 -35t35 -52t13 -64zM335 557q0 22 -8 41.5t-22 34t-33 22.5t-41 8t-41 -8t-32.5 -22.5t-21.5 -34t-8 -41.5q0 -23 8 -42t22 -33.5t33 -22.5 t41 -8t41 8t32.5 22.5t21.5 33.5t8 42z" />
<glyph unicode="&#xb1;" horiz-adv-x="522" d="M295 289v-177h-67v177h-176v67h176v175h67v-175h175v-67h-175zM52 0v67h418v-67h-418z" />
<glyph unicode="&#xb4;" d="M267 594h-66l88 153h86z" />
<glyph unicode="&#xb5;" horiz-adv-x="561" d="M399 0v55q-53 -61 -138 -61q-66 0 -106 37v-251h-72v712h72v-303q0 -66 32.5 -98.5t88.5 -32.5t89.5 33t33.5 98v303h72v-492h-72z" />
<glyph unicode="&#xb6;" horiz-adv-x="603" d="M428 -220v864h-117v-864h-72v546q-45 0 -81.5 16t-62 43t-39.5 61.5t-14 71.5q0 40 14.5 75.5t42.5 61.5t68.5 41.5t91.5 15.5h241v-932h-72z" />
<glyph unicode="&#xb7;" horiz-adv-x="270" d="M88 223v94h94v-94h-94z" />
<glyph unicode="&#xb8;" d="M254 -216h-79l71 149h67z" />
<glyph unicode="&#xbb;" horiz-adv-x="554" d="M304 58v89l120 121l-120 120v90l210 -210zM78 58v89l121 121l-121 120v90l210 -210z" />
<glyph unicode="&#xc1;" horiz-adv-x="611" d="M518 0l-57 161h-311l-57 -161h-81l262 712h64l261 -712h-81zM307 603l-134 -376h266zM319 781h-66l88 153h86z" />
<glyph unicode="&#xc2;" horiz-adv-x="611" d="M518 0l-57 161h-311l-57 -161h-81l262 712h64l261 -712h-81zM307 603l-134 -376h266zM392 781l-90 104l-90 -104h-69l125 153h68l125 -153h-69z" />
<glyph unicode="&#xc4;" horiz-adv-x="611" d="M518 0l-57 161h-311l-57 -161h-81l262 712h64l261 -712h-81zM307 603l-134 -376h266zM372 789v89h72v-89h-72zM160 789v89h72v-89h-72z" />
<glyph unicode="&#xc7;" horiz-adv-x="637" d="M572 206q-9 -50 -30.5 -89.5t-54 -66.5t-73.5 -41.5t-89 -14.5q-53 0 -99.5 19t-82.5 55q-25 25 -38.5 52t-20 60.5t-7.5 76t-1 99.5t1 99.5t7.5 76t20 60.5t38.5 52q36 36 82.5 55t99.5 19q48 0 89 -14.5t73.5 -41.5t54 -66.5t30.5 -89.5h-78q-14 66 -58 105t-111 39 q-35 0 -67.5 -13t-55.5 -37q-17 -17 -27 -36.5t-15 -47t-6.5 -66t-1.5 -94.5t1.5 -94.5t6.5 -66t15 -47t27 -36.5q23 -24 55.5 -37t67.5 -13q67 0 112 39t59 105h76zM311 -216h-79l71 149h67z" />
<glyph unicode="&#xc9;" horiz-adv-x="600" d="M103 0v712h442v-68h-366v-251h312v-68h-312v-257h366v-68h-442zM330 781h-66l88 153h86z" />
<glyph unicode="&#xcb;" horiz-adv-x="600" d="M103 0v712h442v-68h-366v-251h312v-68h-312v-257h366v-68h-442zM171 789v89h72v-89h-72zM383 789v89h72v-89h-72z" />
<glyph unicode="&#xcd;" horiz-adv-x="282" d="M103 0v712h76v-712h-76zM169 781h-66l88 153h86z" />
<glyph unicode="&#xce;" horiz-adv-x="282" d="M103 0v712h76v-712h-76zM230 781l-90 104l-90 -104h-69l125 153h68l125 -153h-69z" />
<glyph unicode="&#xd3;" horiz-adv-x="650" d="M574 356q0 -57 -1 -99.5t-7.5 -76t-20 -60.5t-38.5 -52q-36 -36 -82 -55t-100 -19q-108 0 -182 74q-25 25 -38.5 52t-20 60.5t-7.5 76t-1 99.5t1 99.5t7.5 76t20 60.5t38.5 52q74 74 182 74t182 -74q25 -25 38.5 -52t20 -60.5t7.5 -76t1 -99.5zM498 356q0 56 -1.5 94.5 t-6.5 65.5t-15 46.5t-27 36.5q-23 24 -55.5 37.5t-67.5 13.5t-67.5 -13.5t-55.5 -37.5q-17 -17 -27 -36.5t-15 -46.5t-6.5 -65.5t-1.5 -94.5t1.5 -94.5t6.5 -65.5t15 -46.5t27 -36.5q23 -24 55.5 -37.5t67.5 -13.5t67.5 13.5t55.5 37.5q17 17 27 36.5t15 46.5t6.5 65.5 t1.5 94.5zM342 781h-66l88 153h86z" />
<glyph unicode="&#xd4;" horiz-adv-x="650" d="M574 356q0 -57 -1 -99.5t-7.5 -76t-20 -60.5t-38.5 -52q-36 -36 -82 -55t-100 -19q-108 0 -182 74q-25 25 -38.5 52t-20 60.5t-7.5 76t-1 99.5t1 99.5t7.5 76t20 60.5t38.5 52q74 74 182 74t182 -74q25 -25 38.5 -52t20 -60.5t7.5 -76t1 -99.5zM498 356q0 56 -1.5 94.5 t-6.5 65.5t-15 46.5t-27 36.5q-23 24 -55.5 37.5t-67.5 13.5t-67.5 -13.5t-55.5 -37.5q-17 -17 -27 -36.5t-15 -46.5t-6.5 -65.5t-1.5 -94.5t1.5 -94.5t6.5 -65.5t15 -46.5t27 -36.5q23 -24 55.5 -37.5t67.5 -13.5t67.5 13.5t55.5 37.5q17 17 27 36.5t15 46.5t6.5 65.5 t1.5 94.5zM415 781l-90 104l-90 -104h-69l125 153h68l125 -153h-69z" />
<glyph unicode="&#xd6;" horiz-adv-x="650" d="M574 356q0 -57 -1 -99.5t-7.5 -76t-20 -60.5t-38.5 -52q-36 -36 -82 -55t-100 -19q-108 0 -182 74q-25 25 -38.5 52t-20 60.5t-7.5 76t-1 99.5t1 99.5t7.5 76t20 60.5t38.5 52q74 74 182 74t182 -74q25 -25 38.5 -52t20 -60.5t7.5 -76t1 -99.5zM498 356q0 56 -1.5 94.5 t-6.5 65.5t-15 46.5t-27 36.5q-23 24 -55.5 37.5t-67.5 13.5t-67.5 -13.5t-55.5 -37.5q-17 -17 -27 -36.5t-15 -46.5t-6.5 -65.5t-1.5 -94.5t1.5 -94.5t6.5 -65.5t15 -46.5t27 -36.5q23 -24 55.5 -37.5t67.5 -13.5t67.5 13.5t55.5 37.5q17 17 27 36.5t15 46.5t6.5 65.5 t1.5 94.5zM395 789v89h72v-89h-72zM183 789v89h72v-89h-72z" />
<glyph unicode="&#xd7;" horiz-adv-x="522" d="M412 74l-151 151l-151 -151l-45 45l151 151l-151 151l45 45l151 -152l151 152l45 -45l-152 -151l152 -151z" />
<glyph unicode="&#xda;" horiz-adv-x="683" d="M590 235q0 -53 -18.5 -97.5t-52 -76.5t-79 -49.5t-99.5 -17.5t-99.5 17.5t-78.5 49.5t-51.5 76.5t-18.5 97.5v477h76v-471q0 -41 12 -74t34.5 -56t54.5 -36t71 -13t71 13t54.5 36t35 56t12.5 74v471h76v-477zM358 781h-66l88 153h86z" />
<glyph unicode="&#xdc;" horiz-adv-x="683" d="M590 235q0 -53 -18.5 -97.5t-52 -76.5t-79 -49.5t-99.5 -17.5t-99.5 17.5t-78.5 49.5t-51.5 76.5t-18.5 97.5v477h76v-471q0 -41 12 -74t34.5 -56t54.5 -36t71 -13t71 13t54.5 36t35 56t12.5 74v471h76v-477zM199 789v89h72v-89h-72zM411 789v89h72v-89h-72z" />
<glyph unicode="&#xdd;" horiz-adv-x="514" d="M296 294v-294h-76v294l-212 418h82l168 -341l166 341h82zM274 781h-66l88 153h86z" />
<glyph unicode="&#xdf;" horiz-adv-x="556" d="M484 141q0 -69 -39 -105q-20 -19 -44 -27.5t-59 -8.5h-54v62h40q22 0 34 4.5t25 15.5q25 20 25 67v169q0 41 -21 62t-59 21h-44v60h36q39 0 63.5 24.5t24.5 66.5q0 22 -8.5 41.5t-22.5 33.5q-30 29 -94 29q-67 0 -95.5 -37.5t-28.5 -97.5v-521h-73v524q0 94 54 144.5 t147 50.5q40 0 75 -10t61 -30t41.5 -51.5t15.5 -74.5q0 -42 -16.5 -70.5t-46.5 -48.5q18 -10 30 -21t19.5 -25t10.5 -32t3 -42v-173v0z" />
<glyph unicode="&#xe1;" horiz-adv-x="526" d="M369 0v47q-30 -30 -61.5 -41.5t-80.5 -11.5q-51 0 -83.5 10.5t-55.5 34.5q-18 18 -27.5 44.5t-9.5 55.5q0 65 43.5 103.5t126.5 38.5h148v47q0 54 -29 81t-97 27q-48 0 -75 -12.5t-49 -43.5l-49 45q33 43 73.5 58t100.5 15q100 0 148.5 -41.5t48.5 -122.5v-334h-72z M369 227h-138q-110 0 -110 -87q0 -43 27 -63.5t86 -20.5q32 0 59.5 5t50.5 28q25 24 25 85v53zM269 594h-66l88 153h86z" />
<glyph unicode="&#xe2;" horiz-adv-x="526" d="M369 0v47q-30 -30 -61.5 -41.5t-80.5 -11.5q-51 0 -83.5 10.5t-55.5 34.5q-18 18 -27.5 44.5t-9.5 55.5q0 65 43.5 103.5t126.5 38.5h148v47q0 54 -29 81t-97 27q-48 0 -75 -12.5t-49 -43.5l-49 45q33 43 73.5 58t100.5 15q100 0 148.5 -41.5t48.5 -122.5v-334h-72z M369 227h-138q-110 0 -110 -87q0 -43 27 -63.5t86 -20.5q32 0 59.5 5t50.5 28q25 24 25 85v53zM342 594l-90 104l-90 -104h-69l125 153h68l125 -153h-69z" />
<glyph unicode="&#xe4;" horiz-adv-x="526" d="M369 0v47q-30 -30 -61.5 -41.5t-80.5 -11.5q-51 0 -83.5 10.5t-55.5 34.5q-18 18 -27.5 44.5t-9.5 55.5q0 65 43.5 103.5t126.5 38.5h148v47q0 54 -29 81t-97 27q-48 0 -75 -12.5t-49 -43.5l-49 45q33 43 73.5 58t100.5 15q100 0 148.5 -41.5t48.5 -122.5v-334h-72z M369 227h-138q-110 0 -110 -87q0 -43 27 -63.5t86 -20.5q32 0 59.5 5t50.5 28q25 24 25 85v53zM322 602v89h72v-89h-72zM110 602v89h72v-89h-72z" />
<glyph unicode="&#xe7;" horiz-adv-x="490" d="M443 67q-38 -41 -74.5 -57t-87.5 -16q-47 0 -86.5 15.5t-69 47t-46 79t-16.5 110.5t16.5 110t46 78.5t69 47.5t86.5 16q51 0 87.5 -16t74.5 -57l-49 -46q-28 31 -53 43t-60 12q-36 0 -65 -14t-49 -42q-17 -24 -24.5 -54.5t-7.5 -77.5t7.5 -77.5t24.5 -54.5q20 -28 49 -42 t65 -14q35 0 60 12.5t53 43.5zM254 -216h-79l71 149h67z" />
<glyph unicode="&#xe9;" horiz-adv-x="530" d="M135 227q0 -81 37 -125.5t108 -44.5q43 0 71.5 13.5t57.5 42.5l49 -43q-19 -19 -37.5 -33t-39.5 -23.5t-46.5 -14.5t-56.5 -5q-49 0 -88.5 15t-67.5 46t-43.5 78.5t-15.5 112.5q0 120 54 186t148 66q96 0 149 -64t53 -174v-33h-332zM395 281q-1 15 -2 26t-2.5 20t-4 17.5 t-6.5 18.5q-14 34 -45 54t-70 20t-70 -20t-45 -54q-8 -20 -11 -36t-4 -46h260zM285 594h-66l88 153h86z" />
<glyph unicode="&#xeb;" horiz-adv-x="530" d="M135 227q0 -81 37 -125.5t108 -44.5q43 0 71.5 13.5t57.5 42.5l49 -43q-19 -19 -37.5 -33t-39.5 -23.5t-46.5 -14.5t-56.5 -5q-49 0 -88.5 15t-67.5 46t-43.5 78.5t-15.5 112.5q0 120 54 186t148 66q96 0 149 -64t53 -174v-33h-332zM395 281q-1 15 -2 26t-2.5 20t-4 17.5 t-6.5 18.5q-14 34 -45 54t-70 20t-70 -20t-45 -54q-8 -20 -11 -36t-4 -46h260zM338 602v89h72v-89h-72zM126 602v89h72v-89h-72z" />
<glyph unicode="&#xed;" horiz-adv-x="253" d="M90 0v492h72v-492h-72zM156 594h-66l88 153h86z" />
<glyph unicode="&#xee;" horiz-adv-x="253" d="M90 0v492h72v-492h-72zM219 594l-90 104l-90 -104h-69l125 153h68l125 -153h-69z" />
<glyph unicode="&#xf3;" horiz-adv-x="530" d="M466 246q0 -57 -11.5 -107.5t-48.5 -88.5q-26 -26 -61 -41t-80 -15t-80 15t-61 41q-19 19 -30.5 41.5t-18 47t-9 51.5t-2.5 56q0 28 2.5 55.5t9 52t18 47t30.5 41.5q26 26 61 41t80 15t80 -15t61 -41q37 -38 48.5 -88.5t11.5 -107.5zM394 246q0 21 -1 42t-5 41t-12 37.5 t-21 31.5q-36 36 -90 36q-53 0 -89 -36q-14 -14 -21.5 -31.5t-12 -37.5t-5.5 -41t-1 -42t1 -42t5.5 -41t12 -38t21.5 -31q36 -36 89 -36q54 0 90 36q13 13 21 31t12 38t5 41t1 42zM282 594h-66l88 153h86z" />
<glyph unicode="&#xf4;" horiz-adv-x="530" d="M466 246q0 -57 -11.5 -107.5t-48.5 -88.5q-26 -26 -61 -41t-80 -15t-80 15t-61 41q-19 19 -30.5 41.5t-18 47t-9 51.5t-2.5 56q0 28 2.5 55.5t9 52t18 47t30.5 41.5q26 26 61 41t80 15t80 -15t61 -41q37 -38 48.5 -88.5t11.5 -107.5zM394 246q0 21 -1 42t-5 41t-12 37.5 t-21 31.5q-36 36 -90 36q-53 0 -89 -36q-14 -14 -21.5 -31.5t-12 -37.5t-5.5 -41t-1 -42t1 -42t5.5 -41t12 -38t21.5 -31q36 -36 89 -36q54 0 90 36q13 13 21 31t12 38t5 41t1 42zM355 594l-90 104l-90 -104h-69l125 153h68l125 -153h-69z" />
<glyph unicode="&#xf6;" horiz-adv-x="530" d="M466 246q0 -57 -11.5 -107.5t-48.5 -88.5q-26 -26 -61 -41t-80 -15t-80 15t-61 41q-19 19 -30.5 41.5t-18 47t-9 51.5t-2.5 56q0 28 2.5 55.5t9 52t18 47t30.5 41.5q26 26 61 41t80 15t80 -15t61 -41q37 -38 48.5 -88.5t11.5 -107.5zM394 246q0 21 -1 42t-5 41t-12 37.5 t-21 31.5q-36 36 -90 36q-53 0 -89 -36q-14 -14 -21.5 -31.5t-12 -37.5t-5.5 -41t-1 -42t1 -42t5.5 -41t12 -38t21.5 -31q36 -36 89 -36q54 0 90 36q13 13 21 31t12 38t5 41t1 42zM335 602v89h72v-89h-72zM123 602v89h72v-89h-72z" />
<glyph unicode="&#xf7;" horiz-adv-x="522" d="M51 236v67h420v-67h-420zM218 49v86h86v-86h-86zM218 404v86h86v-86h-86z" />
<glyph unicode="&#xfa;" horiz-adv-x="562" d="M401 0v55q-26 -30 -61.5 -45.5t-77.5 -15.5q-81 0 -127 46q-26 26 -38 60.5t-12 77.5v314h72v-303q0 -66 32 -98.5t88 -32.5t89.5 33t33.5 98v303h72v-492h-71zM295 594h-66l88 153h86z" />
<glyph unicode="&#xfc;" horiz-adv-x="562" d="M401 0v55q-26 -30 -61.5 -45.5t-77.5 -15.5q-81 0 -127 46q-26 26 -38 60.5t-12 77.5v314h72v-303q0 -66 32 -98.5t88 -32.5t89.5 33t33.5 98v303h72v-492h-71zM136 602v89h72v-89h-72zM348 602v89h72v-89h-72z" />
<glyph unicode="&#xfd;" horiz-adv-x="447" d="M212 -119q-14 -39 -35 -58q-20 -19 -45 -26.5t-51 -7.5h-31v64h22q37 0 53 13.5t28 47.5l35 96l-177 482h78l135 -395l134 395h78zM240 594h-66l88 153h86z" />
<glyph unicode="&#x102;" horiz-adv-x="611" d="M518 0l-57 161h-311l-57 -161h-81l262 712h64l261 -712h-81zM307 603l-134 -376h266zM470 914q-12 -139 -163 -139q-155 0 -167 139h58q5 -39 34 -60.5t75 -21.5t74.5 21.5t33.5 60.5h55z" />
<glyph unicode="&#x103;" horiz-adv-x="526" d="M369 0v47q-30 -30 -61.5 -41.5t-80.5 -11.5q-51 0 -83.5 10.5t-55.5 34.5q-18 18 -27.5 44.5t-9.5 55.5q0 65 43.5 103.5t126.5 38.5h148v47q0 54 -29 81t-97 27q-48 0 -75 -12.5t-49 -43.5l-49 45q33 43 73.5 58t100.5 15q100 0 148.5 -41.5t48.5 -122.5v-334h-72z M369 227h-138q-110 0 -110 -87q0 -43 27 -63.5t86 -20.5q32 0 59.5 5t50.5 28q25 24 25 85v53zM422 727q-12 -139 -163 -139q-155 0 -167 139h58q5 -39 34 -60.5t75 -21.5t74.5 21.5t33.5 60.5h55z" />
<glyph unicode="&#x104;" horiz-adv-x="611" d="M518 0l-57 161h-311l-57 -161h-81l262 712h64l261 -712h-81zM307 603l-134 -376h266zM591 -216l-59 149h66l71 -149h-78z" />
<glyph unicode="&#x105;" horiz-adv-x="526" d="M369 0v47q-30 -30 -61.5 -41.5t-80.5 -11.5q-51 0 -83.5 10.5t-55.5 34.5q-18 18 -27.5 44.5t-9.5 55.5q0 65 43.5 103.5t126.5 38.5h148v47q0 54 -29 81t-97 27q-48 0 -75 -12.5t-49 -43.5l-49 45q33 43 73.5 58t100.5 15q100 0 148.5 -41.5t48.5 -122.5v-334h-72z M369 227h-138q-110 0 -110 -87q0 -43 27 -63.5t86 -20.5q32 0 59.5 5t50.5 28q25 24 25 85v53zM428 -216l-59 149h66l71 -149h-78z" />
<glyph unicode="&#x106;" horiz-adv-x="637" d="M572 206q-9 -50 -30.5 -89.5t-54 -66.5t-73.5 -41.5t-89 -14.5q-53 0 -99.5 19t-82.5 55q-25 25 -38.5 52t-20 60.5t-7.5 76t-1 99.5t1 99.5t7.5 76t20 60.5t38.5 52q36 36 82.5 55t99.5 19q48 0 89 -14.5t73.5 -41.5t54 -66.5t30.5 -89.5h-78q-14 66 -58 105t-111 39 q-35 0 -67.5 -13t-55.5 -37q-17 -17 -27 -36.5t-15 -47t-6.5 -66t-1.5 -94.5t1.5 -94.5t6.5 -66t15 -47t27 -36.5q23 -24 55.5 -37t67.5 -13q67 0 112 39t59 105h76zM335 781h-66l88 153h86z" />
<glyph unicode="&#x107;" horiz-adv-x="490" d="M443 67q-38 -41 -74.5 -57t-87.5 -16q-47 0 -86.5 15.5t-69 47t-46 79t-16.5 110.5t16.5 110t46 78.5t69 47.5t86.5 16q51 0 87.5 -16t74.5 -57l-49 -46q-28 31 -53 43t-60 12q-36 0 -65 -14t-49 -42q-17 -24 -24.5 -54.5t-7.5 -77.5t7.5 -77.5t24.5 -54.5q20 -28 49 -42 t65 -14q35 0 60 12.5t53 43.5zM262 594h-66l88 153h86z" />
<glyph unicode="&#x10c;" horiz-adv-x="637" d="M572 206q-9 -50 -30.5 -89.5t-54 -66.5t-73.5 -41.5t-89 -14.5q-53 0 -99.5 19t-82.5 55q-25 25 -38.5 52t-20 60.5t-7.5 76t-1 99.5t1 99.5t7.5 76t20 60.5t38.5 52q36 36 82.5 55t99.5 19q48 0 89 -14.5t73.5 -41.5t54 -66.5t30.5 -89.5h-78q-14 66 -58 105t-111 39 q-35 0 -67.5 -13t-55.5 -37q-17 -17 -27 -36.5t-15 -47t-6.5 -66t-1.5 -94.5t1.5 -94.5t6.5 -66t15 -47t27 -36.5q23 -24 55.5 -37t67.5 -13q67 0 112 39t59 105h76zM352 781h-68l-125 153h69l90 -105l90 105h69z" />
<glyph unicode="&#x10d;" horiz-adv-x="490" d="M443 67q-38 -41 -74.5 -57t-87.5 -16q-47 0 -86.5 15.5t-69 47t-46 79t-16.5 110.5t16.5 110t46 78.5t69 47.5t86.5 16q51 0 87.5 -16t74.5 -57l-49 -46q-28 31 -53 43t-60 12q-36 0 -65 -14t-49 -42q-17 -24 -24.5 -54.5t-7.5 -77.5t7.5 -77.5t24.5 -54.5q20 -28 49 -42 t65 -14q35 0 60 12.5t53 43.5zM290 594h-68l-125 153h69l90 -105l90 105h69z" />
<glyph unicode="&#x10e;" horiz-adv-x="673" d="M597 364q0 -37 -0.5 -78t-6.5 -80.5t-20.5 -75.5t-42.5 -64q-32 -32 -78 -49t-102 -17h-244v712h244q56 0 102 -17t78 -49q28 -28 42.5 -61.5t20.5 -70t6.5 -75t0.5 -75.5zM521 364q0 33 -0.5 65.5t-4.5 62t-14 55.5t-28 45q-28 29 -63 40.5t-77 11.5h-155v-576h155 q42 0 77 11.5t63 40.5q18 19 28 47.5t14 61t4.5 67.5t0.5 68zM370 781h-68l-125 153h69l90 -105l90 105h69z" />
<glyph unicode="&#x10f;" horiz-adv-x="545" d="M384 0v59q-30 -39 -64.5 -52t-75.5 -13q-38 0 -69 11.5t-51 31.5q-19 19 -30.5 43t-18 51.5t-9 56.5t-2.5 58t2.5 58t9 56.5t18 51.5t30.5 43q20 20 51 31.5t69 11.5q41 0 75 -12.5t64 -50.5v277h72v-712h-71zM383 246q0 36 -4 70t-17 60t-37.5 42t-64.5 16t-64.5 -16 t-37.5 -42t-17.5 -60t-4.5 -70t4.5 -70t17.5 -60t37.5 -42t64.5 -16t64.5 16t37.5 42t17 60t4 70zM545 584v163h77v-94z" />
<glyph unicode="&#x110;" horiz-adv-x="687" d="M611 356q0 -61 -1.5 -100t-6 -66t-13.5 -46t-23 -39q-32 -45 -84.5 -75t-126.5 -30h-239v330h-78v59h78v323h245q135 0 205 -107q15 -24 24 -44t13.5 -46.5t5.5 -63.5t1 -95zM535 352q0 50 -1 84.5t-4.5 59t-10.5 42t-20 35.5q-29 39 -64.5 55.5t-86.5 16.5h-154v-256 h161v-59h-161v-263h154q106 0 156 74q11 16 17 32t9 38.5t4 55.5t1 85z" />
<glyph unicode="&#x111;" horiz-adv-x="545" d="M455 572v-572h-71v59q-30 -39 -64.5 -52t-75.5 -13q-38 0 -69 11.5t-51 31.5q-19 19 -30.5 43t-18 51.5t-9 56.5t-2.5 58t2.5 58t9 56.5t18 51.5t30.5 43q20 20 51 31.5t69 11.5q41 0 75 -12.5t64 -50.5v137h-82v55h82v85h72v-85h68v-55h-68zM383 246q0 36 -4 70t-17 60 t-37.5 42t-64.5 16t-64.5 -16t-37.5 -42t-17.5 -60t-4.5 -70t4.5 -70t17.5 -60t37.5 -42t64.5 -16t64.5 16t37.5 42t17 60t4 70z" />
<glyph unicode="&#x118;" horiz-adv-x="600" d="M103 0v712h442v-68h-366v-251h312v-68h-312v-257h366v-68h-442zM505 -216l-59 149h66l71 -149h-78z" />
<glyph unicode="&#x119;" horiz-adv-x="530" d="M135 227q0 -81 37 -125.5t108 -44.5q43 0 71.5 13.5t57.5 42.5l49 -43q-19 -19 -37.5 -33t-39.5 -23.5t-46.5 -14.5t-56.5 -5q-49 0 -88.5 15t-67.5 46t-43.5 78.5t-15.5 112.5q0 120 54 186t148 66q96 0 149 -64t53 -174v-33h-332zM395 281q-1 15 -2 26t-2.5 20t-4 17.5 t-6.5 18.5q-14 34 -45 54t-70 20t-70 -20t-45 -54q-8 -20 -11 -36t-4 -46h260zM312 -216l-59 149h66l71 -149h-78z" />
<glyph unicode="&#x11a;" horiz-adv-x="600" d="M103 0v712h442v-68h-366v-251h312v-68h-312v-257h366v-68h-442zM344 781h-68l-125 153h69l90 -105l90 105h69z" />
<glyph unicode="&#x11b;" horiz-adv-x="530" d="M135 227q0 -81 37 -125.5t108 -44.5q43 0 71.5 13.5t57.5 42.5l49 -43q-19 -19 -37.5 -33t-39.5 -23.5t-46.5 -14.5t-56.5 -5q-49 0 -88.5 15t-67.5 46t-43.5 78.5t-15.5 112.5q0 120 54 186t148 66q96 0 149 -64t53 -174v-33h-332zM395 281q-1 15 -2 26t-2.5 20t-4 17.5 t-6.5 18.5q-14 34 -45 54t-70 20t-70 -20t-45 -54q-8 -20 -11 -36t-4 -46h260zM302 594h-68l-125 153h69l90 -105l90 105h69z" />
<glyph unicode="&#x131;" horiz-adv-x="253" d="M90 0v492h72v-492h-72z" />
<glyph unicode="&#x139;" horiz-adv-x="573" d="M103 0v712h76v-644h364v-68h-440zM303 781h-66l88 153h86z" />
<glyph unicode="&#x13a;" horiz-adv-x="297" d="M213 0q-65 0 -95 37.5t-30 93.5v581h72v-578q0 -36 14 -54t52 -18h39v-62h-52zM166 781h-66l88 153h86z" />
<glyph unicode="&#x13d;" horiz-adv-x="573" d="M103 0v712h76v-644h364v-68h-440zM348 549v163h77v-94z" />
<glyph unicode="&#x13e;" horiz-adv-x="297" d="M213 0q-65 0 -95 37.5t-30 93.5v581h72v-578q0 -36 14 -54t52 -18h39v-62h-52zM250 584v163h77v-94z" />
<glyph unicode="&#x141;" horiz-adv-x="582" d="M112 0v289l-73 -46v67l73 46v356h77v-308l154 98v-66l-154 -98v-270h363v-68h-440z" />
<glyph unicode="&#x142;" horiz-adv-x="315" d="M226 0q-65 0 -95.5 37.5t-30.5 93.5v211l-63 -39v62l63 39v308h72v-264l81 50v-62l-81 -50v-252q0 -36 14 -54t52 -18h40v-62h-52z" />
<glyph unicode="&#x143;" horiz-adv-x="732" d="M557 0l-378 571v-571h-76v712h72l378 -569v569h76v-712h-72zM383 781h-66l88 153h86z" />
<glyph unicode="&#x144;" horiz-adv-x="562" d="M405 0v303q0 66 -32.5 98.5t-88.5 32.5t-89 -33t-33 -98v-303h-72v492h72v-54q26 30 61 45t77 15q80 0 126 -46q51 -50 51 -137v-315h-72zM295 594h-66l88 153h86z" />
<glyph unicode="&#x147;" horiz-adv-x="732" d="M557 0l-378 571v-571h-76v712h72l378 -569v569h76v-712h-72zM400 781h-68l-125 153h69l90 -105l90 105h69z" />
<glyph unicode="&#x148;" horiz-adv-x="562" d="M405 0v303q0 66 -32.5 98.5t-88.5 32.5t-89 -33t-33 -98v-303h-72v492h72v-54q26 30 61 45t77 15q80 0 126 -46q51 -50 51 -137v-315h-72zM315 594h-68l-125 153h69l90 -105l90 105h69z" />
<glyph unicode="&#x150;" horiz-adv-x="650" d="M574 356q0 -57 -1 -99.5t-7.5 -76t-20 -60.5t-38.5 -52q-36 -36 -82 -55t-100 -19q-108 0 -182 74q-25 25 -38.5 52t-20 60.5t-7.5 76t-1 99.5t1 99.5t7.5 76t20 60.5t38.5 52q74 74 182 74t182 -74q25 -25 38.5 -52t20 -60.5t7.5 -76t1 -99.5zM498 356q0 56 -1.5 94.5 t-6.5 65.5t-15 46.5t-27 36.5q-23 24 -55.5 37.5t-67.5 13.5t-67.5 -13.5t-55.5 -37.5q-17 -17 -27 -36.5t-15 -46.5t-6.5 -65.5t-1.5 -94.5t1.5 -94.5t6.5 -65.5t15 -46.5t27 -36.5q23 -24 55.5 -37.5t67.5 -13.5t67.5 13.5t55.5 37.5q17 17 27 36.5t15 46.5t6.5 65.5 t1.5 94.5zM267 781h-66l89 153h85zM429 781h-65l89 153h85z" />
<glyph unicode="&#x151;" horiz-adv-x="530" d="M466 246q0 -57 -11.5 -107.5t-48.5 -88.5q-26 -26 -61 -41t-80 -15t-80 15t-61 41q-19 19 -30.5 41.5t-18 47t-9 51.5t-2.5 56q0 28 2.5 55.5t9 52t18 47t30.5 41.5q26 26 61 41t80 15t80 -15t61 -41q37 -38 48.5 -88.5t11.5 -107.5zM394 246q0 21 -1 42t-5 41t-12 37.5 t-21 31.5q-36 36 -90 36q-53 0 -89 -36q-14 -14 -21.5 -31.5t-12 -37.5t-5.5 -41t-1 -42t1 -42t5.5 -41t12 -38t21.5 -31q36 -36 89 -36q54 0 90 36q13 13 21 31t12 38t5 41t1 42zM201 594h-66l89 153h85zM363 594h-65l89 153h85z" />
<glyph unicode="&#x154;" horiz-adv-x="656" d="M512 0l-162 316h-171v-316h-76v712h273q46 0 85 -13.5t67 -39t43.5 -62.5t15.5 -83q0 -78 -43 -127.5t-112 -63.5l169 -323h-89zM511 513q0 66 -39.5 98.5t-102.5 32.5h-190v-261h190q63 0 102.5 32t39.5 98zM345 781h-66l88 153h86z" />
<glyph unicode="&#x155;" horiz-adv-x="421" d="M365 398q-20 20 -38 28t-47 8q-27 0 -49 -10t-37 -28t-23.5 -42t-8.5 -52v-302h-72v492h72v-60q20 31 57.5 48.5t80.5 17.5q35 0 63.5 -10t54.5 -36zM225 594h-66l88 153h86z" />
<glyph unicode="&#x158;" horiz-adv-x="656" d="M512 0l-162 316h-171v-316h-76v712h273q46 0 85 -13.5t67 -39t43.5 -62.5t15.5 -83q0 -78 -43 -127.5t-112 -63.5l169 -323h-89zM511 513q0 66 -39.5 98.5t-102.5 32.5h-190v-261h190q63 0 102.5 32t39.5 98zM362 781h-68l-125 153h69l90 -105l90 105h69z" />
<glyph unicode="&#x159;" horiz-adv-x="421" d="M365 398q-20 20 -38 28t-47 8q-27 0 -49 -10t-37 -28t-23.5 -42t-8.5 -52v-302h-72v492h72v-60q20 31 57.5 48.5t80.5 17.5q35 0 63.5 -10t54.5 -36zM255 594h-68l-125 153h69l90 -105l90 105h69z" />
<glyph unicode="&#x15a;" horiz-adv-x="588" d="M532 196q0 -47 -17.5 -84.5t-50 -63.5t-78 -40t-100.5 -14q-80 0 -137 22t-107 72l52 52q44 -44 89 -61t105 -17q78 0 123 34.5t45 97.5q0 28 -8.5 51t-25.5 38t-35.5 21.5t-57.5 12.5l-83 13q-85 14 -131 54q-54 48 -54 133q0 45 16 82.5t45.5 63.5t71.5 40.5t95 14.5 q68 0 117 -18.5t95 -59.5l-49 -49q-33 30 -71 45.5t-95 15.5q-72 0 -111 -36t-39 -96q0 -54 32 -82q17 -14 42.5 -24t53.5 -15l78 -12q25 -4 44.5 -8.5t34.5 -10.5t27.5 -13.5t23.5 -17.5q60 -51 60 -141zM311 781h-66l88 153h86z" />
<glyph unicode="&#x15b;" horiz-adv-x="496" d="M445 144q0 -36 -14.5 -63.5t-41 -47t-63 -29.5t-81.5 -10q-63 0 -112 16t-90 55l48 48q29 -31 68 -44t85 -13q61 0 96 21.5t35 65.5q0 32 -19.5 50t-62.5 22l-81 7q-72 6 -109.5 38.5t-37.5 93.5q0 34 13.5 60.5t37.5 45t57.5 28.5t72.5 10q53 0 98.5 -13t78.5 -40 l-47 -47q-26 20 -59.5 29.5t-71.5 9.5q-54 0 -82 -21.5t-28 -59.5q0 -32 19.5 -50t66.5 -22l79 -7q32 -3 59 -11t46 -24t29.5 -40t10.5 -58zM262 594h-66l88 153h86z" />
<glyph unicode="&#x15e;" horiz-adv-x="588" d="M532 196q0 -47 -17.5 -84.5t-50 -63.5t-78 -40t-100.5 -14q-80 0 -137 22t-107 72l52 52q44 -44 89 -61t105 -17q78 0 123 34.5t45 97.5q0 28 -8.5 51t-25.5 38t-35.5 21.5t-57.5 12.5l-83 13q-85 14 -131 54q-54 48 -54 133q0 45 16 82.5t45.5 63.5t71.5 40.5t95 14.5 q68 0 117 -18.5t95 -59.5l-49 -49q-33 30 -71 45.5t-95 15.5q-72 0 -111 -36t-39 -96q0 -54 32 -82q17 -14 42.5 -24t53.5 -15l78 -12q25 -4 44.5 -8.5t34.5 -10.5t27.5 -13.5t23.5 -17.5q60 -51 60 -141zM294 -216h-79l71 149h67z" />
<glyph unicode="&#x15f;" horiz-adv-x="496" d="M445 144q0 -36 -14.5 -63.5t-41 -47t-63 -29.5t-81.5 -10q-63 0 -112 16t-90 55l48 48q29 -31 68 -44t85 -13q61 0 96 21.5t35 65.5q0 32 -19.5 50t-62.5 22l-81 7q-72 6 -109.5 38.5t-37.5 93.5q0 34 13.5 60.5t37.5 45t57.5 28.5t72.5 10q53 0 98.5 -13t78.5 -40 l-47 -47q-26 20 -59.5 29.5t-71.5 9.5q-54 0 -82 -21.5t-28 -59.5q0 -32 19.5 -50t66.5 -22l79 -7q32 -3 59 -11t46 -24t29.5 -40t10.5 -58zM248 -216h-79l71 149h67z" />
<glyph unicode="&#x160;" horiz-adv-x="588" d="M532 196q0 -47 -17.5 -84.5t-50 -63.5t-78 -40t-100.5 -14q-80 0 -137 22t-107 72l52 52q44 -44 89 -61t105 -17q78 0 123 34.5t45 97.5q0 28 -8.5 51t-25.5 38t-35.5 21.5t-57.5 12.5l-83 13q-85 14 -131 54q-54 48 -54 133q0 45 16 82.5t45.5 63.5t71.5 40.5t95 14.5 q68 0 117 -18.5t95 -59.5l-49 -49q-33 30 -71 45.5t-95 15.5q-72 0 -111 -36t-39 -96q0 -54 32 -82q17 -14 42.5 -24t53.5 -15l78 -12q25 -4 44.5 -8.5t34.5 -10.5t27.5 -13.5t23.5 -17.5q60 -51 60 -141zM323 781h-68l-125 153h69l90 -105l90 105h69z" />
<glyph unicode="&#x161;" horiz-adv-x="496" d="M445 144q0 -36 -14.5 -63.5t-41 -47t-63 -29.5t-81.5 -10q-63 0 -112 16t-90 55l48 48q29 -31 68 -44t85 -13q61 0 96 21.5t35 65.5q0 32 -19.5 50t-62.5 22l-81 7q-72 6 -109.5 38.5t-37.5 93.5q0 34 13.5 60.5t37.5 45t57.5 28.5t72.5 10q53 0 98.5 -13t78.5 -40 l-47 -47q-26 20 -59.5 29.5t-71.5 9.5q-54 0 -82 -21.5t-28 -59.5q0 -32 19.5 -50t66.5 -22l79 -7q32 -3 59 -11t46 -24t29.5 -40t10.5 -58zM280 594h-68l-125 153h69l90 -105l90 105h69z" />
<glyph unicode="&#x162;" horiz-adv-x="548" d="M312 644v-644h-76v644h-206v68h488v-68h-206zM274 -216h-79l71 149h67z" />
<glyph unicode="&#x163;" horiz-adv-x="332" d="M228 0q-32 0 -55.5 10.5t-39 28.5t-23.5 42t-8 51v302h-62v55h62v154h72v-154h105v-55h-105v-300q0 -34 16 -53t51 -19h38v-62h-51zM166 -216h-79l71 149h67z" />
<glyph unicode="&#x164;" horiz-adv-x="548" d="M312 644v-644h-76v644h-206v68h488v-68h-206zM308 781h-68l-125 153h69l90 -105l90 105h69z" />
<glyph unicode="&#x165;" horiz-adv-x="332" d="M228 0q-32 0 -55.5 10.5t-39 28.5t-23.5 42t-8 51v302h-62v55h62v154h72v-154h105v-55h-105v-300q0 -34 16 -53t51 -19h38v-62h-51zM268 583v163h77v-94z" />
<glyph unicode="&#x16e;" horiz-adv-x="683" d="M590 235q0 -53 -18.5 -97.5t-52 -76.5t-79 -49.5t-99.5 -17.5t-99.5 17.5t-78.5 49.5t-51.5 76.5t-18.5 97.5v477h76v-471q0 -41 12 -74t34.5 -56t54.5 -36t71 -13t71 13t54.5 36t35 56t12.5 74v471h76v-477zM459 874q0 -24 -9.5 -46t-25.5 -38t-37.5 -25.5t-45.5 -9.5 t-45.5 9.5t-37.5 25.5t-25.5 38t-9.5 46t9.5 45.5t25.5 37.5t37.5 25.5t45.5 9.5t45.5 -9t37.5 -25t25.5 -37.5t9.5 -46.5zM410 874q0 29 -20 48.5t-49 19.5t-49 -19.5t-20 -48.5t20 -49t49 -20t49 20t20 49z" />
<glyph unicode="&#x16f;" horiz-adv-x="562" d="M401 0v55q-26 -30 -61.5 -45.5t-77.5 -15.5q-81 0 -127 46q-26 26 -38 60.5t-12 77.5v314h72v-303q0 -66 32 -98.5t88 -32.5t89.5 33t33.5 98v303h72v-492h-71zM399 687q0 -24 -9.5 -46t-25.5 -38t-37.5 -25.5t-45.5 -9.5t-45.5 9.5t-37.5 25.5t-25.5 38t-9.5 46 t9.5 45.5t25.5 37.5t37.5 25.5t45.5 9.5t45.5 -9t37.5 -25t25.5 -37.5t9.5 -46.5zM350 687q0 29 -20 48.5t-49 19.5t-49 -19.5t-20 -48.5t20 -49t49 -20t49 20t20 49z" />
<glyph unicode="&#x170;" horiz-adv-x="683" d="M590 235q0 -53 -18.5 -97.5t-52 -76.5t-79 -49.5t-99.5 -17.5t-99.5 17.5t-78.5 49.5t-51.5 76.5t-18.5 97.5v477h76v-471q0 -41 12 -74t34.5 -56t54.5 -36t71 -13t71 13t54.5 36t35 56t12.5 74v471h76v-477zM283 781h-66l89 153h85zM445 781h-65l89 153h85z" />
<glyph unicode="&#x171;" horiz-adv-x="562" d="M401 0v55q-26 -30 -61.5 -45.5t-77.5 -15.5q-81 0 -127 46q-26 26 -38 60.5t-12 77.5v314h72v-303q0 -66 32 -98.5t88 -32.5t89.5 33t33.5 98v303h72v-492h-71zM217 594h-66l89 153h85zM379 594h-65l89 153h85z" />
<glyph unicode="&#x179;" horiz-adv-x="556" d="M57 0v72l356 572h-342v68h428v-64l-359 -580h359v-68h-442zM295 781h-66l88 153h86z" />
<glyph unicode="&#x17a;" horiz-adv-x="459" d="M50 0v62l274 366h-259v64h342v-61l-275 -367h275v-64h-357zM244 594h-66l88 153h86z" />
<glyph unicode="&#x17b;" horiz-adv-x="556" d="M57 0v72l356 572h-342v68h428v-64l-359 -580h359v-68h-442zM238 821v74h80v-74h-80z" />
<glyph unicode="&#x17c;" horiz-adv-x="459" d="M50 0v62l274 366h-259v64h342v-61l-275 -367h275v-64h-357zM190 634v74h80v-74h-80z" />
<glyph unicode="&#x17d;" horiz-adv-x="556" d="M57 0v72l356 572h-342v68h428v-64l-359 -580h359v-68h-442zM318 781h-68l-125 153h69l90 -105l90 105h69z" />
<glyph unicode="&#x17e;" horiz-adv-x="459" d="M50 0v62l274 366h-259v64h342v-61l-275 -367h275v-64h-357zM270 594h-68l-125 153h69l90 -105l90 105h69z" />
<glyph unicode="&#x192;" horiz-adv-x="403" d="M323 652q-35 0 -54 -19t-25 -53l-34 -196h105v-54h-115l-97 -550h-72l97 550h-98v54h108l34 198q5 27 17 51t31 42t44 28.5t57 10.5h52v-62h-50z" />
<glyph unicode="&#x218;" horiz-adv-x="588" d="M532 196q0 -47 -17.5 -84.5t-50 -63.5t-78 -40t-100.5 -14q-80 0 -137 22t-107 72l52 52q44 -44 89 -61t105 -17q78 0 123 34.5t45 97.5q0 28 -8.5 51t-25.5 38t-35.5 21.5t-57.5 12.5l-83 13q-85 14 -131 54q-54 48 -54 133q0 45 16 82.5t45.5 63.5t71.5 40.5t95 14.5 q68 0 117 -18.5t95 -59.5l-49 -49q-33 30 -71 45.5t-95 15.5q-72 0 -111 -36t-39 -96q0 -54 32 -82q17 -14 42.5 -24t53.5 -15l78 -12q25 -4 44.5 -8.5t34.5 -10.5t27.5 -13.5t23.5 -17.5q60 -51 60 -141zM294 -216h-79l71 149h67z" />
<glyph unicode="&#x219;" horiz-adv-x="496" d="M445 144q0 -36 -14.5 -63.5t-41 -47t-63 -29.5t-81.5 -10q-63 0 -112 16t-90 55l48 48q29 -31 68 -44t85 -13q61 0 96 21.5t35 65.5q0 32 -19.5 50t-62.5 22l-81 7q-72 6 -109.5 38.5t-37.5 93.5q0 34 13.5 60.5t37.5 45t57.5 28.5t72.5 10q53 0 98.5 -13t78.5 -40 l-47 -47q-26 20 -59.5 29.5t-71.5 9.5q-54 0 -82 -21.5t-28 -59.5q0 -32 19.5 -50t66.5 -22l79 -7q32 -3 59 -11t46 -24t29.5 -40t10.5 -58zM248 -216h-79l71 149h67z" />
<glyph unicode="&#x2c6;" d="M340 594l-90 104l-90 -104h-69l125 153h68l125 -153h-69z" />
<glyph unicode="&#x2c7;" d="M284 594h-68l-125 153h69l90 -105l90 105h69z" />
<glyph unicode="&#x2d8;" d="M415 727q-12 -139 -163 -139q-155 0 -167 139h58q5 -39 34 -60.5t75 -21.5t74.5 21.5t33.5 60.5h55v0z" />
<glyph unicode="&#x2d9;" d="M210 634v74h80v-74h-80z" />
<glyph unicode="&#x2da;" d="M368 687q0 -24 -9.5 -46t-25.5 -38t-37.5 -25.5t-45.5 -9.5t-45.5 9.5t-37.5 25.5t-25.5 38t-9.5 46t9.5 45.5t25.5 37.5t37.5 25.5t45.5 9.5t45.5 -9t37.5 -25t25.5 -37.5t9.5 -46.5zM319 687q0 29 -20 48.5t-49 19.5t-49 -19.5t-20 -48.5t20 -49t49 -20t49 20t20 49z " />
<glyph unicode="&#x2db;" d="M245 -216l-59 149h66l71 -149h-78z" />
<glyph unicode="&#x2dc;" d="M407 659q-34 -34 -56 -42.5t-39 -8.5q-21 0 -37 6t-34 17q-14 8 -27.5 14.5t-28.5 6.5q-12 0 -24.5 -5t-34.5 -27l-37 36q17 17 30.5 27t24.5 15.5t21 7t19 1.5q22 0 37 -6.5t34 -17.5q16 -10 28.5 -15t27.5 -5q11 0 24 5t35 27l37 -36v0z" />
<glyph unicode="&#x2dd;" d="M176 594h-66l89 153h85zM338 594h-65l89 153h85z" />
<glyph unicode="&#x401;" horiz-adv-x="600" d="M370 822v89h72v-89h-72zM158 822v89h72v-89h-72zM103 0v712h442v-68h-366v-251h312v-68h-312v-257h366v-68h-442z" />
<glyph unicode="&#x410;" horiz-adv-x="593" d="M509 0l-57 161h-311l-57 -161h-81l262 712h64l261 -712h-81zM298 603l-134 -376h266z" />
<glyph unicode="&#x411;" horiz-adv-x="637" d="M380 397q47 0 86 -12.5t67 -37.5t43.5 -62t15.5 -86t-15.5 -86t-43.5 -62t-67 -38t-86 -13h-277v712h440v-68h-364v-247h201zM373 68q66 0 104.5 35.5t38.5 95.5t-38.5 95t-104.5 35h-194v-261h194z" />
<glyph unicode="&#x412;" horiz-adv-x="668" d="M592 197q0 -48 -15.5 -85t-43.5 -62t-67 -37.5t-86 -12.5h-277v712h268q46 0 85 -13t66.5 -37.5t43 -59.5t15.5 -80q0 -57 -30 -98t-75 -58q51 -19 83.5 -62t32.5 -107zM516 199q0 60 -38.5 95t-104.5 35h-194v-261h194q66 0 104.5 35.5t38.5 95.5zM505 521q0 32 -11 55 t-29.5 38t-44 22.5t-55.5 7.5h-186v-247h186q30 0 55.5 7.5t44 22.5t29.5 38.5t11 55.5z" />
<glyph unicode="&#x413;" horiz-adv-x="543" d="M179 644v-644h-76v712h440v-68h-364z" />
<glyph unicode="&#x414;" horiz-adv-x="671" d="M666 68v-226h-68v158h-525v-158h-68v226h54l237 644h80l237 -644h53zM532 68l-189 535h-14l-190 -535h393z" />
<glyph unicode="&#x415;" horiz-adv-x="600" d="M103 0v712h442v-68h-366v-251h312v-68h-312v-257h366v-68h-442z" />
<glyph unicode="&#x416;" horiz-adv-x="884" d="M404 0v338h-47l-258 -338h-96l291 379l-256 333h96l234 -306h36v306h76v-306h36l234 306h96l-256 -333l291 -379h-96l-258 338h-47v-338h-76z" />
<glyph unicode="&#x417;" horiz-adv-x="535" d="M486 194q0 -49 -17.5 -86t-47.5 -62.5t-71 -38.5t-88 -13q-45 0 -84.5 11t-69.5 34.5t-48.5 58.5t-20.5 83h76q3 -32 16 -55t33 -37t45.5 -20.5t52.5 -6.5q31 0 58.5 9t47 26.5t31 42t11.5 56.5q0 63 -32 99t-104 36h-25v68h24q64 0 94 33.5t30 91.5q0 63 -39 94.5 t-96 31.5q-60 0 -95.5 -30t-41.5 -84h-76q3 43 21 76.5t46.5 57t66 36t80.5 12.5q46 0 85 -14t66.5 -39t43 -60.5t15.5 -78.5q0 -115 -96 -158q109 -41 109 -174z" />
<glyph unicode="&#x418;" horiz-adv-x="732" d="M103 0v712h76v-582l378 582h72v-712h-76v584l-378 -584h-72z" />
<glyph unicode="&#x419;" horiz-adv-x="732" d="M531 947q-12 -139 -163 -139q-155 0 -167 139h58q5 -39 34 -60.5t75 -21.5t74.5 21.5t33.5 60.5h55zM103 0v712h76v-582l378 582h72v-712h-76v584l-378 -584h-72z" />
<glyph unicode="&#x41a;" horiz-adv-x="636" d="M546 0l-217 379l-150 -180v-199h-76v712h76v-409l332 409h93l-224 -275l256 -437h-90z" />
<glyph unicode="&#x41b;" horiz-adv-x="596" d="M334 712l262 -712h-81l-214 603h-6l-214 -603h-81l262 712h72z" />
<glyph unicode="&#x41c;" horiz-adv-x="816" d="M637 0v541l-195 -429h-65l-198 429v-541h-76v712h76l232 -505l226 505h76v-712h-76z" />
<glyph unicode="&#x41d;" horiz-adv-x="696" d="M517 0v325h-338v-325h-76v712h76v-319h338v319h76v-712h-76z" />
<glyph unicode="&#x41e;" horiz-adv-x="650" d="M574 356q0 -57 -1 -99.5t-7.5 -76t-20 -60.5t-38.5 -52q-36 -36 -82 -55t-100 -19q-108 0 -182 74q-25 25 -38.5 52t-20 60.5t-7.5 76t-1 99.5t1 99.5t7.5 76t20 60.5t38.5 52q74 74 182 74t182 -74q25 -25 38.5 -52t20 -60.5t7.5 -76t1 -99.5zM498 356q0 56 -1.5 94.5 t-6.5 65.5t-15 46.5t-27 36.5q-23 24 -55.5 37.5t-67.5 13.5t-67.5 -13.5t-55.5 -37.5q-17 -17 -27 -36.5t-15 -46.5t-6.5 -65.5t-1.5 -94.5t1.5 -94.5t6.5 -65.5t15 -46.5t27 -36.5q23 -24 55.5 -37.5t67.5 -13.5t67.5 13.5t55.5 37.5q17 17 27 36.5t15 46.5t6.5 65.5 t1.5 94.5z" />
<glyph unicode="&#x41f;" horiz-adv-x="696" d="M517 0v644h-338v-644h-76v712h490v-712h-76z" />
<glyph unicode="&#x420;" horiz-adv-x="630" d="M588 503q0 -48 -16 -87t-45 -66t-69.5 -42t-89.5 -15h-189v-293h-76v712h265q49 0 89.5 -14.5t69.5 -42t45 -66t16 -86.5zM512 503q0 71 -42 106t-109 35h-182v-283h182q67 0 109 35.5t42 106.5z" />
<glyph unicode="&#x421;" horiz-adv-x="637" d="M572 206q-9 -50 -30.5 -89.5t-54 -66.5t-73.5 -41.5t-89 -14.5q-53 0 -99.5 19t-82.5 55q-25 25 -38.5 52t-20 60.5t-7.5 76t-1 99.5t1 99.5t7.5 76t20 60.5t38.5 52q36 36 82.5 55t99.5 19q48 0 89 -14.5t73.5 -41.5t54 -66.5t30.5 -89.5h-78q-14 66 -58 105t-111 39 q-35 0 -67.5 -13t-55.5 -37q-17 -17 -27 -36.5t-15 -47t-6.5 -66t-1.5 -94.5t1.5 -94.5t6.5 -66t15 -47t27 -36.5q23 -24 55.5 -37t67.5 -13q67 0 112 39t59 105h76z" />
<glyph unicode="&#x422;" horiz-adv-x="498" d="M287 644v-644h-76v644h-206v68h488v-68h-206z" />
<glyph unicode="&#x423;" horiz-adv-x="466" d="M486 712l-253 -613q-23 -57 -57.5 -78t-79.5 -21h-39v68h39q23 0 39 13.5t35 50.5l35 79l-205 501h77l167 -406l165 406h77z" />
<glyph unicode="&#x424;" horiz-adv-x="696" d="M310 564q-56 -2 -99 -24q-18 -10 -36 -25t-31.5 -37t-22 -52.5t-8.5 -70.5t8.5 -70.5t22 -52.5t31.5 -37t36 -24q43 -22 99 -24v417zM310 0v84q-51 0 -100.5 11.5t-87.5 41.5t-61.5 83t-23.5 136t23.5 135.5t61.5 82.5t87.5 41.5t100.5 11.5v85h76v-85q51 0 100.5 -11.5 t87.5 -41.5t61.5 -83t23.5 -136t-23.5 -135.5t-61.5 -82.5t-87.5 -41.5t-100.5 -11.5v-84h-76zM386 147q55 2 98 24q18 9 36 24t32 37t22.5 52.5t8.5 70.5t-8.5 70.5t-22.5 52.5t-32 37t-36 25q-43 22 -98 24v-417z" />
<glyph unicode="&#x425;" horiz-adv-x="521" d="M433 0l-173 299l-174 -299h-86l218 365l-204 347h88l158 -281l158 281h88l-205 -347l220 -365h-88z" />
<glyph unicode="&#x426;" horiz-adv-x="696" d="M593 68h68v-226h-68v158h-490v712h76v-644h338v644h76v-644z" />
<glyph unicode="&#x427;" horiz-adv-x="601" d="M498 712v-712h-76v289h-136q-47 0 -88 15t-72 44t-48.5 70.5t-17.5 95.5v198h76v-193q0 -36 11.5 -66t32 -51.5t47.5 -33t59 -11.5h136v355h76z" />
<glyph unicode="&#x428;" horiz-adv-x="1030" d="M927 712v-712h-824v712h76v-644h298v644h76v-644h298v644h76z" />
<glyph unicode="&#x429;" horiz-adv-x="1030" d="M995 68v-226h-68v158h-824v712h76v-644h298v644h76v-644h298v644h76v-644h68z" />
<glyph unicode="&#x42a;" horiz-adv-x="723" d="M469 397q47 0 86 -12.5t67 -37.5t43.5 -62t15.5 -86t-15.5 -86t-43.5 -62t-67 -38t-86 -13h-277v644h-176v68h252v-315h201zM462 68q66 0 104.5 35.5t38.5 95.5t-38.5 95t-104.5 35h-194v-261h194z" />
<glyph unicode="&#x42b;" horiz-adv-x="840" d="M737 712v-712h-76v712h76zM380 397q47 0 86 -12.5t67 -37.5t43.5 -62t15.5 -86t-15.5 -86t-43.5 -62t-67 -38t-86 -13h-277v712h76v-315h201zM373 68q66 0 104.5 35.5t38.5 95.5t-38.5 95t-104.5 35h-194v-261h194z" />
<glyph unicode="&#x42c;" horiz-adv-x="634" d="M380 397q47 0 86 -12.5t67 -37.5t43.5 -62t15.5 -86t-15.5 -86t-43.5 -62t-67 -38t-86 -13h-277v712h76v-315h201zM373 68q66 0 104.5 35.5t38.5 95.5t-38.5 95t-104.5 35h-194v-261h194z" />
<glyph unicode="&#x42d;" horiz-adv-x="637" d="M494 644q25 -25 38.5 -52t20 -60.5t7.5 -76t1 -99.5t-1 -99.5t-7.5 -76t-20 -60.5t-38.5 -52q-36 -36 -82.5 -55t-99.5 -19q-48 0 -89 14.5t-73.5 41.5t-54 66.5t-30.5 89.5h76q14 -66 59 -105t112 -39q35 0 67.5 13t55.5 37q15 16 25 33.5t15 41.5t7.5 56.5t2.5 78.5 h-200v68h200q0 46 -2.5 78.5t-7.5 56.5t-15 41.5t-25 33.5q-23 24 -55.5 37t-67.5 13q-67 0 -111 -39t-58 -105h-78q9 50 30.5 89.5t54 66.5t73.5 41.5t89 14.5q53 0 99.5 -19t82.5 -55z" />
<glyph unicode="&#x42e;" horiz-adv-x="857" d="M714 644q25 -25 38.5 -52t20 -60.5t7.5 -76t1 -99.5t-1 -99.5t-7.5 -76t-20 -60.5t-38.5 -52q-36 -36 -82 -55t-100 -19q-108 0 -182 74q-23 23 -36 47.5t-20 54.5t-9 67t-2 85h-104v-322h-76v712h76v-322h104q0 48 2 85t9 67t20 54.5t36 47.5q74 74 182 74t182 -74z M655 113q17 17 27 36.5t15 46.5t6.5 65.5t1.5 94.5t-1.5 94.5t-6.5 65.5t-15 46.5t-27 36.5q-23 24 -55.5 37.5t-67.5 13.5t-67.5 -13.5t-55.5 -37.5q-17 -17 -27 -36.5t-15 -46.5t-6.5 -65.5t-1.5 -94.5t1.5 -94.5t6.5 -65.5t15 -46.5t27 -36.5q23 -24 55.5 -37.5 t67.5 -13.5t67.5 13.5t55.5 37.5z" />
<glyph unicode="&#x42f;" horiz-adv-x="634" d="M33 0l169 323q-69 14 -112 63.5t-43 127.5q0 46 15.5 83t43.5 62.5t66.5 39t85.5 13.5h273v-712h-76v316h-171l-162 -316h-89zM265 644q-63 0 -102.5 -32.5t-39.5 -98.5t39.5 -98t102.5 -32h190v261h-190z" />
<glyph unicode="&#x430;" horiz-adv-x="526" d="M369 0v47q-30 -30 -61.5 -41.5t-80.5 -11.5q-51 0 -83.5 10.5t-55.5 34.5q-18 18 -27.5 44.5t-9.5 55.5q0 65 43.5 103.5t126.5 38.5h148v47q0 54 -29 81t-97 27q-48 0 -75 -12.5t-49 -43.5l-49 45q33 43 73.5 58t100.5 15q100 0 148.5 -41.5t48.5 -122.5v-334h-72z M369 227h-138q-110 0 -110 -87q0 -43 27 -63.5t86 -20.5q32 0 59.5 5t50.5 28q25 24 25 85v53z" />
<glyph unicode="&#x431;" horiz-adv-x="528" d="M406 442q37 -38 48.5 -88.5t11.5 -107.5t-11.5 -107.5t-48.5 -88.5q-26 -26 -61 -41t-80 -15t-80 15t-61 41q-19 19 -30.5 41.5t-18 47t-9 51.5t-2.5 56q0 75 1.5 129.5t6.5 86.5t16.5 60.5t26.5 50.5q15 21 34 36t34 25q30 20 79 30q35 6 46 15q12 9 12 27h94 q-3 -40 -29 -64q-14 -11 -37 -20.5t-55 -16.5q-53 -10 -77 -22q-16 -8 -28.5 -20t-19.5 -24q-8 -14 -18 -42t-11 -54q12 15 30 27q15 11 38.5 19.5t57.5 8.5q45 0 80 -15t61 -41zM355 94q13 13 21 31t12 38t5 41t1 42t-1 42t-5 41t-12 37.5t-21 31.5q-36 36 -90 36 q-53 0 -89 -36q-14 -14 -21.5 -31.5t-12 -37.5t-5.5 -41t-1 -42t1 -42t5.5 -41t12 -38t21.5 -31q36 -36 89 -36q54 0 90 36z" />
<glyph unicode="&#x432;" horiz-adv-x="525" d="M367 355q0 38 -25 55.5t-63 17.5h-117v-146h117q38 0 63 17.5t25 55.5zM375 141q0 36 -24.5 56.5t-66.5 20.5h-122v-154h122q42 0 66.5 20.5t24.5 56.5zM447 136q0 -67 -40 -101.5t-106 -34.5h-211v492h204q65 0 105 -34.5t40 -96.5q0 -39 -20.5 -68t-51.5 -40 q35 -13 57.5 -42.5t22.5 -74.5z" />
<glyph unicode="&#x433;" horiz-adv-x="426" d="M426 492v-64h-264v-428h-72v492h336z" />
<glyph unicode="&#x434;" horiz-adv-x="553" d="M545 64v-198h-64v134h-409v-134h-64v198h52l157 428h118l158 -428h52zM137 64h278l-128 364h-21z" />
<glyph unicode="&#x435;" horiz-adv-x="530" d="M135 227q0 -81 37 -125.5t108 -44.5q43 0 71.5 13.5t57.5 42.5l49 -43q-19 -19 -37.5 -33t-39.5 -23.5t-46.5 -14.5t-56.5 -5q-49 0 -88.5 15t-67.5 46t-43.5 78.5t-15.5 112.5q0 120 54 186t148 66q96 0 149 -64t53 -174v-33h-332zM395 281q-1 15 -2 26t-2.5 20t-4 17.5 t-6.5 18.5q-14 34 -45 54t-70 20t-70 -20t-45 -54q-8 -20 -11 -36t-4 -46h260z" />
<glyph unicode="&#x436;" horiz-adv-x="651" d="M361 0h-72v229h-31l-176 -229h-82l202 262l-178 230h82l160 -209h23v209h72v-209h23l160 209h82l-178 -230l203 -262h-82l-177 229h-31v-229z" />
<glyph unicode="&#x437;" horiz-adv-x="445" d="M394 133q0 -34 -13.5 -60t-37 -43.5t-55.5 -26.5t-69 -9q-35 0 -66 8t-54.5 24t-38 40.5t-15.5 57.5l72 7q5 -40 34.5 -56.5t67.5 -16.5q44 0 73.5 21t29.5 60q0 38 -22.5 59.5t-72.5 21.5h-11v64h11q45 0 65.5 20t20.5 55q0 38 -26.5 56.5t-66.5 18.5q-43 0 -67 -18.5 t-29 -50.5l-72 6q3 30 16.5 53.5t36 40t52 25t63.5 8.5q36 0 66.5 -9.5t52.5 -27.5t34 -42.5t12 -54.5q0 -79 -67 -110q76 -27 76 -121z" />
<glyph unicode="&#x438;" horiz-adv-x="582" d="M90 0v492h72v-382l261 382h69v-492h-72v384l-261 -384h-69z" />
<glyph unicode="&#x439;" horiz-adv-x="582" d="M90 0v492h72v-382l261 382h69v-492h-72v384l-261 -384h-69zM452 712q-12 -139 -163 -139q-155 0 -167 139h58q5 -39 34 -60.5t75 -21.5t74.5 21.5t33.5 60.5h55z" />
<glyph unicode="&#x43a;" horiz-adv-x="503" d="M414 0l-156 252l-96 -110v-142h-72v492h72v-256l222 256h90l-167 -188l196 -304h-89z" />
<glyph unicode="&#x43b;" horiz-adv-x="449" d="M72 0h-77l180 492h97l182 -492h-79l-151 428z" />
<glyph unicode="&#x43c;" horiz-adv-x="660" d="M570 492v-492h-72v363l-138 -286h-58l-140 286v-363h-72v492h83l159 -326l154 326h84z" />
<glyph unicode="&#x43d;" horiz-adv-x="567" d="M477 492v-492h-72v214h-243v-214h-72v492h72v-214h243v214h72z" />
<glyph unicode="&#x43e;" horiz-adv-x="530" d="M466 246q0 -57 -11.5 -107.5t-48.5 -88.5q-26 -26 -61 -41t-80 -15t-80 15t-61 41q-19 19 -30.5 41.5t-18 47t-9 51.5t-2.5 56q0 28 2.5 55.5t9 52t18 47t30.5 41.5q26 26 61 41t80 15t80 -15t61 -41q37 -38 48.5 -88.5t11.5 -107.5zM394 246q0 21 -1 42t-5 41t-12 37.5 t-21 31.5q-36 36 -90 36q-53 0 -89 -36q-14 -14 -21.5 -31.5t-12 -37.5t-5.5 -41t-1 -42t1 -42t5.5 -41t12 -38t21.5 -31q36 -36 89 -36q54 0 90 36q13 13 21 31t12 38t5 41t1 42z" />
<glyph unicode="&#x43f;" horiz-adv-x="567" d="M90 492h387v-492h-72v428h-243v-428h-72v492z" />
<glyph unicode="&#x440;" horiz-adv-x="545" d="M481 246q0 -29 -2.5 -58t-9 -56.5t-18 -51.5t-30.5 -43q-20 -20 -51 -31.5t-69 -11.5q-41 0 -75 13t-64 51v-278h-72v712h72v-58q30 39 64 51.5t75 12.5q38 0 69 -11.5t51 -31.5q19 -19 30.5 -43t18 -51.5t9 -56.5t2.5 -58zM409 246q0 36 -4 70t-17 60t-37.5 42t-64.5 16 t-64.5 -16t-37.5 -42t-17.5 -60t-4.5 -70t4.5 -70t17.5 -60t37.5 -42t64.5 -16t64.5 16t37.5 42t17 60t4 70z" />
<glyph unicode="&#x441;" horiz-adv-x="490" d="M443 67q-38 -41 -74.5 -57t-87.5 -16q-47 0 -86.5 15.5t-69 47t-46 79t-16.5 110.5t16.5 110t46 78.5t69 47.5t86.5 16q51 0 87.5 -16t74.5 -57l-49 -46q-28 31 -53 43t-60 12q-36 0 -65 -14t-49 -42q-17 -24 -24.5 -54.5t-7.5 -77.5t7.5 -77.5t24.5 -54.5q20 -28 49 -42 t65 -14q35 0 60 12.5t53 43.5l49 -47v0z" />
<glyph unicode="&#x442;" horiz-adv-x="397" d="M392 428h-157v-428h-72v428h-158v64h387v-64z" />
<glyph unicode="&#x443;" horiz-adv-x="417" d="M193 -119q-14 -39 -35 -58q-20 -19 -45 -26.5t-51 -7.5h-31v64h22q37 0 53 13.5t28 47.5l35 96l-177 482h78l135 -395l134 395h78z" />
<glyph unicode="&#x444;" horiz-adv-x="637" d="M355 492q45 0 87.5 -10.5t75.5 -37.5t53.5 -75t20.5 -123t-20.5 -123t-53.5 -75t-75.5 -37.5t-87.5 -10.5v-174h-72v174q-45 0 -88 10.5t-76 37.5t-53.5 75t-20.5 123t20.5 123t53.5 75t76 37.5t88 10.5v174h72v-174zM283 437q-3 0 -16.5 -1t-32 -6t-39 -16.5t-38 -33 t-29 -54t-11.5 -80.5t11.5 -80.5t29 -54t38 -33t39 -16.5t32 -6t16.5 -1v382zM355 55q3 0 16.5 1t31.5 6t39 16.5t38 33t28.5 54t11.5 80.5t-11.5 80.5t-28.5 54t-38 33t-39 16.5t-31.5 6t-16.5 1v-382z" />
<glyph unicode="&#x445;" horiz-adv-x="412" d="M325 0l-118 191l-120 -191h-87l167 251l-160 241h87l113 -182l111 182h87l-160 -241l167 -251h-87z" />
<glyph unicode="&#x446;" horiz-adv-x="567" d="M477 0h-387v492h72v-428h243v428h72v-428h64v-198h-64v134z" />
<glyph unicode="&#x447;" horiz-adv-x="469" d="M379 492v-492h-72v191h-100q-35 0 -66 11t-54 32t-36.5 51.5t-13.5 69.5v137h72v-127q0 -24 9 -44t24 -34.5t34.5 -23t41.5 -8.5h89v237h72z" />
<glyph unicode="&#x448;" horiz-adv-x="813" d="M723 492v-492h-633v492h72v-428h209v428h72v-428h208v428h72z" />
<glyph unicode="&#x449;" horiz-adv-x="813" d="M90 0v492h72v-428h209v428h72v-428h208v428h72v-428h64v-197h-64v133h-633z" />
<glyph unicode="&#x44a;" horiz-adv-x="584" d="M381 316q66 0 106.5 -39.5t40.5 -117.5t-40.5 -118.5t-106.5 -40.5h-221v428h-136v64h208v-176h149zM366 64q42 0 66 25.5t24 68.5q0 44 -24 69t-66 25h-134v-188h134z" />
<glyph unicode="&#x44b;" horiz-adv-x="691" d="M601 492v-492h-72v492h72zM311 316q66 0 106.5 -39.5t40.5 -117.5t-40.5 -118.5t-106.5 -40.5h-221v492h72v-176h149zM296 64q42 0 66 25.5t24 68.5q0 44 -24 69t-66 25h-134v-188h134z" />
<glyph unicode="&#x44c;" horiz-adv-x="514" d="M311 316q66 0 106.5 -39.5t40.5 -117.5t-40.5 -118.5t-106.5 -40.5h-221v492h72v-176h149zM296 64q42 0 66 25.5t24 68.5q0 44 -24 69t-66 25h-134v-188h134z" />
<glyph unicode="&#x44d;" horiz-adv-x="485" d="M208 498q46 0 86 -16t69.5 -47.5t46 -78.5t16.5 -110t-16.5 -110.5t-46 -79t-69.5 -47t-86 -15.5q-51 0 -87.5 16t-74.5 57l49 47q28 -31 53 -43.5t60 -12.5q36 0 65 14t49 42q14 20 21.5 43.5t9.5 56.5h-144v64h144q-2 33 -9.5 56.5t-21.5 43.5q-20 28 -49 42t-65 14 q-35 0 -60 -12t-53 -43l-49 46q38 41 74.5 57t87.5 16z" />
<glyph unicode="&#x44e;" horiz-adv-x="696" d="M574 442q37 -38 48.5 -88.5t11.5 -107.5t-11.5 -107.5t-48.5 -88.5q-26 -26 -61 -41t-80 -15t-80 15t-61 41q-32 32 -44.5 74t-14.5 90h-71v-214h-72v492h72v-214h71q2 48 14.5 89.5t44.5 74.5q26 26 61 41t80 15t80 -15t61 -41zM523 94q13 13 21 31t12 38t5 41t1 42 t-1 42t-5 41t-12 37.5t-21 31.5q-36 36 -90 36q-53 0 -89 -36q-14 -14 -21.5 -31.5t-12 -37.5t-5.5 -41t-1 -42t1 -42t5.5 -41t12 -38t21.5 -31q36 -36 89 -36q54 0 90 36z" />
<glyph unicode="&#x44f;" horiz-adv-x="503" d="M50 0l111 210q-48 11 -74.5 46.5t-26.5 91.5q0 67 40.5 105.5t104.5 38.5h208v-492h-72v210h-102l-108 -210h-81zM341 438h-120q-39 0 -64 -22t-25 -65q0 -44 25 -65.5t64 -21.5h120v174z" />
<glyph unicode="&#x451;" horiz-adv-x="530" d="M135 227q0 -81 37 -125.5t108 -44.5q43 0 71.5 13.5t57.5 42.5l49 -43q-19 -19 -37.5 -33t-39.5 -23.5t-46.5 -14.5t-56.5 -5q-49 0 -88.5 15t-67.5 46t-43.5 78.5t-15.5 112.5q0 120 54 186t148 66q96 0 149 -64t53 -174v-33h-332zM395 281q-1 15 -2 26t-2.5 20t-4 17.5 t-6.5 18.5q-14 34 -45 54t-70 20t-70 -20t-45 -54q-8 -20 -11 -36t-4 -46h260zM335 602v89h72v-89h-72zM123 602v89h72v-89h-72z" />
<glyph unicode="&#x2013;" horiz-adv-x="522" d="M52 236v67h418v-67h-418z" />
<glyph unicode="&#x2014;" horiz-adv-x="914" d="M76 236v68h762v-68h-762z" />
<glyph unicode="&#x2018;" horiz-adv-x="263" d="M88 628v84l87 79v-163h-87z" />
<glyph unicode="&#x2019;" horiz-adv-x="263" d="M88 549v163h87v-84z" />
<glyph unicode="&#x201a;" horiz-adv-x="263" d="M88 -79v163h87v-84z" />
<glyph unicode="&#x201c;" horiz-adv-x="434" d="M258 628v84l88 79v-163h-88zM88 628v84l87 79v-163h-87z" />
<glyph unicode="&#x201d;" horiz-adv-x="434" d="M258 549v163h88v-84zM88 549v163h87v-84z" />
<glyph unicode="&#x201e;" horiz-adv-x="434" d="M258 -79v163h88v-84zM88 -79v163h87v-84z" />
<glyph unicode="&#x2020;" horiz-adv-x="605" d="M337 445v-445h-72v445h-191v64h191v203h72v-203h194v-64h-194z" />
<glyph unicode="&#x2021;" horiz-adv-x="605" d="M337 -16v-204h-72v204h-191v64h191v397h-191v64h191v203h72v-203h194v-64h-194v-397h194v-64h-194z" />
<glyph unicode="&#x2022;" horiz-adv-x="532" d="M429 334q0 -34 -13 -63.5t-35 -51.5t-51.5 -35t-63.5 -13t-63.5 13t-51.5 35t-35 51.5t-13 63.5t13 63.5t35 51.5t51.5 35t63.5 13t63.5 -13t51.5 -35t35 -51.5t13 -63.5z" />
<glyph unicode="&#x2026;" horiz-adv-x="757" d="M577 0v92h92v-92h-92zM88 0v92h92v-92h-92zM332 0v92h92v-92h-92z" />
<glyph unicode="&#x2030;" horiz-adv-x="1179" d="M1115 128q0 -62 -38.5 -98.5t-96.5 -36.5q-59 0 -97 36.5t-38 98.5v105q0 62 38 98.5t97 36.5q58 0 96.5 -36.5t38.5 -98.5v-105zM769 128q0 -62 -38.5 -98.5t-96.5 -36.5q-59 0 -97 36.5t-38 98.5v105q0 62 38 98.5t97 36.5q58 0 96.5 -36.5t38.5 -98.5v-105zM335 479 q0 -61 -38.5 -97.5t-96.5 -36.5q-59 0 -97 36.5t-38 97.5v105q0 62 38 98.5t97 36.5q58 0 96.5 -36.5t38.5 -98.5v-105zM280 0h-60l334 712h60zM712 231q0 40 -18.5 63.5t-59.5 23.5q-42 0 -60 -23t-18 -64v-101q0 -41 18 -64t60 -23q41 0 59.5 23.5t18.5 63.5v101z M1058 231q0 40 -18.5 63.5t-59.5 23.5q-42 0 -60 -23t-18 -64v-101q0 -41 18 -64t60 -23q41 0 59.5 23.5t18.5 63.5v101zM278 582q0 40 -18.5 63.5t-59.5 23.5q-42 0 -60 -23t-18 -64v-101q0 -41 18.5 -63.5t59.5 -22.5t59.5 23t18.5 63v101z" />
<glyph unicode="&#x2039;" horiz-adv-x="328" d="M40 268l210 210v-90l-120 -120l120 -121v-89z" />
<glyph unicode="&#x203a;" horiz-adv-x="328" d="M78 58v89l121 121l-121 120v90l210 -210z" />
<glyph unicode="&#x20ac;" horiz-adv-x="678" d="M608 206q-9 -50 -31 -89.5t-54 -66.5t-73 -41.5t-89 -14.5q-107 0 -181 74q-19 19 -31 39t-19.5 43t-11 50t-4.5 60h-67v50h66v98h-66v49h67q1 31 5 57.5t11.5 49t19.5 42.5t30 38q74 74 181 74q48 0 89 -14.5t73.5 -41.5t54 -66.5t30.5 -89.5h-77q-14 66 -58.5 105 t-111.5 39q-73 0 -123 -50q-12 -13 -20.5 -26.5t-14 -30.5t-8.5 -38t-4 -48h219v-49h-221v-98h221v-50h-219q1 -29 4 -51t8 -39t13.5 -31t21.5 -27q50 -50 123 -50q67 0 112.5 39t59.5 105h75v0z" />
<glyph unicode="&#x2122;" horiz-adv-x="839" d="M724 285v308l-102 -202h-56l-102 202v-308h-58v427h58l130 -259l130 259h57v-427h-57zM212 659v-374h-58v374h-118v53h295v-53h-119z" />
<glyph unicode="&#x2212;" horiz-adv-x="522" d="M52 236v67h418v-67h-418z" />
<glyph unicode="&#x25fc;" horiz-adv-x="490" d="M0 490h490v-490h-490v490z" />
</font>
</defs>
</svg>
